<svg width="43" height="41" viewBox="0 0 43 41" fill="none" xmlns="http://www.w3.org/2000/svg">
<g clip-path="url(#clip0_57_236)">
<path d="M31.7756 15.7272C31.7937 14.5683 31.3304 13.7224 30.3741 13.0933C27.8902 11.4609 25.4225 9.81314 22.9472 8.17113C22.6059 7.93322 22.1997 7.80566 21.7836 7.80566C21.3674 7.80566 20.9613 7.93322 20.62 8.17113C18.1202 9.83541 15.6194 11.4991 13.1176 13.1621C12.2578 13.7349 11.7993 14.4986 11.8174 15.5487C11.8384 16.6943 11.8174 17.8399 11.8174 18.9854C11.8174 20.1622 11.8174 21.3396 11.8174 22.5177C11.8174 23.0551 11.8805 23.5792 12.2951 23.9678C12.7097 24.3563 13.1367 24.7735 13.6125 25.0981C15.9053 26.6625 18.2103 28.2096 20.5273 29.7396C20.8237 29.9232 21.1531 30.0474 21.497 30.1053C22.2928 30.258 22.8889 29.7893 23.4975 29.3835C25.7062 27.9115 27.8921 26.4031 30.1333 24.9835C31.2797 24.259 31.7842 23.31 31.766 21.9831C31.7412 19.8968 31.7444 17.8115 31.7756 15.7272ZM17.6708 14.5339C17.6708 14.1988 17.8886 14.2112 18.1246 14.2112C19.3322 14.2112 20.5407 14.2112 21.7492 14.2112C22.9577 14.2112 24.1653 14.2246 25.3728 14.2036C25.755 14.1979 25.882 14.3344 25.8629 14.7019C25.8429 15.0981 25.8524 15.4962 25.8706 15.8933C25.8859 16.2255 25.7836 16.3869 25.4168 16.385C22.9685 16.3754 20.5203 16.3754 18.0721 16.385C17.7692 16.385 17.6393 16.2723 17.6527 15.9621C17.6727 15.4866 17.6727 15.0103 17.6708 14.5339ZM15.6522 19.1649C15.6738 18.7515 15.6738 18.3373 15.6522 17.9239C15.6522 17.6633 15.7649 17.542 16.0238 17.5487C16.2617 17.5544 16.5015 17.5544 16.7384 17.5544L27.2319 17.5439C27.8606 17.5439 27.8739 17.5554 27.8701 18.174C27.8701 18.5072 27.8443 18.8423 27.8749 19.1745C27.9131 19.5955 27.7497 19.7272 27.3351 19.7234C25.4751 19.7072 23.615 19.7158 21.7549 19.7158C19.9111 19.7158 18.0663 19.7062 16.2225 19.7224C15.7993 19.732 15.6121 19.6174 15.6522 19.1649ZM29.3805 23.0723C26.7562 23.058 24.1309 23.0609 21.5056 23.0609C19.0551 23.0609 16.6047 23.0551 14.1551 23.0723C13.7453 23.0723 13.6192 22.9339 13.6479 22.5444C13.6752 22.163 13.6752 21.7802 13.6479 21.3988C13.6211 21.0055 13.7663 20.8747 14.1628 20.8776C16.2789 20.8928 18.395 20.8852 20.5111 20.8852H29.1503C29.8687 20.8852 29.8687 20.8852 29.8677 21.6251C29.8677 21.943 29.8505 22.2618 29.8735 22.5797C29.904 22.9578 29.755 23.0742 29.3796 23.0723H29.3805Z" fill="#04BF22"/>
<path d="M28.9828 2.89944L31.1891 4.00175C30.8137 3.39799 30.4704 2.95661 30.2416 2.46263C30.0127 1.96865 29.9109 1.44951 29.7553 0.936087L29.9933 0.772569C30.4636 1.17507 30.9419 1.573 31.4019 1.98466C31.6537 2.21335 31.9283 2.44205 32.0988 2.72563C32.3526 3.11822 32.5394 3.55025 32.6515 4.00404C32.7144 4.30592 32.5371 4.65582 32.4581 5.04232C35.5889 7.74321 37.7437 11.1931 38.825 15.3839C38.7106 13.655 39.5505 12.3606 40.5175 11.1085C40.7189 12.6247 40.942 14.1318 40.3104 15.5943C40.0906 16.1043 39.8469 16.6017 39.1786 16.6681C39.0928 16.6772 38.9578 16.891 38.9624 17.0054C39.0013 17.9202 39.0676 18.8269 39.1306 19.7372C39.1306 19.7852 39.1866 19.8298 39.2851 19.983C39.8572 18.4107 40.9855 17.3987 42.068 16.2953C41.9707 18.2689 41.4421 21.1814 39.2519 21.9246C39.1766 21.9573 39.1092 22.0057 39.0543 22.0667C38.9994 22.1277 38.9583 22.1997 38.9338 22.278C38.7369 23.1093 38.5721 23.9486 38.4005 24.7856C38.3913 24.8336 38.428 24.8908 38.4818 25.0749C39.4086 23.6776 40.8047 23.0086 42.0669 22.1648C42.1447 22.2608 42.1939 22.3008 42.187 22.3157C41.5485 23.8125 41.0427 25.4179 39.586 26.3613C39.0482 26.7044 38.3811 26.853 37.7723 27.0897C37.6899 27.1217 37.5606 27.1274 37.5297 27.1858C37.0205 28.1566 36.5227 29.1297 36.0524 30.176C37.4347 29.0014 39.1143 28.2302 40.9065 27.9473C40.0483 29.2555 39.1065 30.5053 37.6601 31.1971C37.0273 31.499 36.287 31.5916 35.5878 31.7322C35.4196 31.7654 35.2136 31.611 35.0557 31.5539C33.8919 32.583 32.7671 33.7345 31.4832 34.6664C30.1992 35.5983 28.7757 36.2936 27.3911 37.1512C29.6145 36.4171 31.7475 37.1077 33.9045 37.5159C32.267 38.0728 30.6501 38.7738 28.8696 38.3621C28.3054 38.2318 27.7653 37.9665 27.2389 37.7149C27.0638 37.6314 26.962 37.3947 26.7881 37.1809L24.0623 37.8704L28.8078 40.0682C26.9963 40.1951 25.2604 40.0076 23.6286 39.2506C23.2739 39.0631 22.9603 38.8064 22.7063 38.4959C22.3871 38.138 22.0369 38.0328 21.562 37.9939C20.9807 37.947 20.5928 38.1083 20.2266 38.5428C19.4176 39.493 18.2424 39.7137 17.1129 39.939C16.17 40.1288 15.1928 40.1505 14.2304 40.2466L14.1789 40.0899L18.8351 37.891C18.0833 37.6817 17.3475 37.4611 16.6117 37.2861C16.5198 37.2781 16.4272 37.2895 16.3399 37.3194C16.2526 37.3493 16.1725 37.3972 16.1048 37.4599C15.1894 38.329 14.0222 38.5496 12.8664 38.4422C11.5962 38.3278 10.3489 37.9459 9.10507 37.5834C11.0184 37.126 12.9007 36.6012 14.8918 36.9659L14.9227 36.7784C14.79 36.7018 14.6584 36.624 14.5234 36.5497C13.807 36.1609 13.0953 35.7607 12.3663 35.3936C12.1638 35.2907 11.8594 35.1718 11.6924 35.2507C10.064 36.0226 8.54665 35.564 7.09681 34.8139C6.25002 34.3759 5.49478 33.7619 4.73152 33.1524C6.66655 33.4394 8.68396 33.1627 10.532 34.3691C9.98047 33.7493 9.5216 33.2828 9.12109 32.7682C8.49859 31.9678 7.73877 31.6991 6.70431 31.6716C5.29223 31.6328 4.2841 30.6425 3.36865 29.6557C2.88087 29.1231 2.46078 28.5325 2.11792 27.897C2.89949 28.1429 3.70508 28.3304 4.4546 28.6506C5.20412 28.9707 5.87125 29.4144 6.71347 29.8809C6.43311 29.3812 6.18937 29.0096 6.00514 28.6094C5.59548 27.7232 5.12631 27.0497 4.04036 26.7364C2.7656 26.3728 2.0916 25.1778 1.51945 24.0138C1.2143 23.3917 0.909153 22.7689 0.604004 22.1453L0.771073 21.9818L4.30126 24.5649C4.31272 24.4769 4.31272 24.3877 4.30126 24.2996C4.23718 23.9817 4.11589 23.6719 4.09071 23.3528C4.02091 22.4872 3.67647 21.9018 2.88461 21.4089C1.71284 20.6771 1.39701 19.3507 1.10864 18.0757C0.994213 17.56 0.936998 17.0328 0.848886 16.4851C2.11449 17.2512 2.91665 18.3615 3.50368 19.6617L3.65473 19.5919C3.69224 19.4803 3.71943 19.3655 3.73598 19.2489C3.77488 18.5857 3.81951 17.9213 3.82638 17.2569C3.82638 17.074 3.76115 16.7996 3.63184 16.7195C2.46236 15.9945 2.29987 14.8248 2.25867 13.6321C2.23235 12.8385 2.33191 12.0415 2.3834 11.097C3.38467 12.0941 3.81379 13.2765 4.31614 14.4806L5.14805 12.1182C4.42714 11.527 4.10673 10.7391 4.23261 9.89181C4.40768 8.67972 4.74526 7.4905 5.10915 6.30472C5.66642 7.64144 6.17678 8.95644 5.73165 10.4281L5.90673 10.467L7.73762 7.71119L7.67812 7.61171L7.19064 7.88843C6.50406 6.59859 6.99954 4.77474 8.94372 2.79081C8.94372 3.57409 9.01581 4.24989 8.92312 4.90167C8.83044 5.55345 8.56839 6.18351 8.37386 6.8593C8.44595 6.84215 8.53292 6.84672 8.57411 6.80556C9.11766 6.27613 9.66235 5.74899 10.1853 5.20469C10.2408 5.14392 10.2825 5.07191 10.3076 4.99356C10.3326 4.91522 10.3405 4.83239 10.3306 4.75073C10.064 3.84624 10.4519 3.09726 10.9978 2.49465C11.6168 1.81542 12.3904 1.27913 13.1594 0.732548C13.101 1.7834 12.7165 2.67646 12.0951 3.59124C12.2908 3.56723 12.4053 3.58438 12.4796 3.5375C12.8996 3.27564 13.3218 3.01264 13.7189 2.71877C13.9069 2.59261 14.0553 2.41578 14.1469 2.20878C14.4055 1.44951 14.9605 1.02985 15.6768 0.786291C16.3247 0.560812 16.9878 0.381597 17.6611 0.25C16.7994 1.42664 15.9847 2.58727 14.3426 2.84569C13.704 2.94632 13.1353 3.48032 12.562 3.95601C14.0084 3.9057 15.3782 4.00976 16.6518 4.70613C14.9651 4.73815 13.3058 5.39565 11.5894 4.9051C11.5184 4.88566 11.4143 4.86279 11.3674 4.89709C10.8536 5.27444 10.1819 5.46883 9.88778 6.13891L13.3997 5.78901L13.4466 5.9914C12.7245 6.33445 12.0265 6.75525 11.2724 7.01138C10.4531 7.28925 9.58339 7.41846 8.73546 7.614C8.59128 7.64716 8.39217 7.64487 8.31435 7.73864C7.82376 8.30212 7.39345 8.91531 7.03044 9.5682L10.635 8.04394L10.7117 8.20975C9.30876 9.41498 8.01226 10.77 6.21798 11.4332C6.09554 11.4778 5.92046 11.5247 5.87469 11.6196C5.52544 12.3837 5.24029 13.1754 5.02218 13.9866C5.91245 12.7745 7.17233 12.1422 8.44709 11.5064C7.30278 13.1073 6.44341 14.9231 4.67088 15.9797C4.59931 16.0218 4.53678 16.0776 4.4869 16.1439C4.43701 16.2102 4.40076 16.2858 4.38022 16.3662C4.2738 17.2718 4.19713 18.182 4.12046 19.0911C4.1136 19.1688 4.1731 19.2523 4.27952 19.3632C4.65486 17.7315 5.64354 16.5548 7.00298 15.5978C6.78327 16.3067 6.54525 17.01 6.34958 17.7235C5.99141 19.0259 5.23502 20.0848 4.36763 21.083C4.28753 21.1756 4.19255 21.3174 4.20858 21.4261C4.35047 22.3934 4.51639 23.3574 4.67431 24.3214L4.90317 24.3316C4.97755 23.8308 5.00044 23.3151 5.1389 22.8325C5.30282 22.2875 5.51696 21.7589 5.77857 21.2534C6.0223 20.7663 6.33813 20.3158 6.62192 19.8481L6.79357 19.8881C6.70889 20.9721 6.68944 22.0607 6.51893 23.1356C6.3942 23.9269 6.24544 24.8142 5.79459 25.4294C5.28651 26.1258 5.43527 26.6072 5.75682 27.2121C6.07837 27.817 6.39306 28.4516 6.83133 29.0634C6.45371 27.3195 6.91486 25.7164 7.46871 23.9989C7.74563 25.3711 8.08435 26.622 8.21938 27.8867C8.30405 28.6929 8.07977 29.5288 8.00997 30.3532C7.9928 30.5613 7.95962 30.8335 8.06718 30.9741C8.47112 31.5012 8.92541 31.9907 9.37055 32.4846C9.41975 32.5395 9.52961 32.5395 9.71384 32.599C9.10049 31.22 9.40946 29.8546 9.32249 28.359C9.46438 28.5877 9.54449 28.6894 9.60513 28.8061C10.1418 29.8455 10.7414 30.8643 11.1808 31.9403C11.4097 32.5121 11.3662 33.1982 11.4452 33.8397C11.4658 33.9997 11.4292 34.241 11.5196 34.3062C12.1444 34.7567 12.7955 35.1707 13.4992 35.6372C13.0232 34.3199 12.5838 33.1216 12.2073 32.0581C13.0644 32.8425 14.0267 33.6304 14.869 34.5315C15.2614 34.95 15.464 35.5709 15.67 36.1323C15.7936 36.4674 15.9343 36.6881 16.2845 36.7898C16.7742 36.9316 17.2537 37.1123 17.7423 37.2621C17.8155 37.2838 17.9128 37.2244 18.1165 37.1729C17.3155 36.289 16.408 35.5629 16.0144 34.3554C16.8417 34.6733 17.5501 34.9328 18.2492 35.2153C19.0937 35.5583 19.7632 36.1003 20.0996 36.9716C20.2735 37.4233 20.5413 37.6577 21.0471 37.5674C21.161 37.5524 21.2764 37.5524 21.3904 37.5674C22.1262 37.6154 22.7178 37.6063 23.0771 36.6972C23.4066 35.8636 24.2065 35.3513 25.1128 35.0689C25.7239 34.8791 26.3052 34.5932 26.9975 34.3119C26.621 35.4851 25.8085 36.225 25.083 37.0231L25.1849 37.2129C25.8268 36.9842 26.4711 36.7681 27.1108 36.5348C27.1645 36.5154 27.2103 36.4136 27.2252 36.3439C27.4644 34.7579 28.6876 33.8602 29.698 32.8162C29.996 32.5109 30.3326 32.2456 30.6993 32.0272C30.5483 32.5864 30.4327 33.157 30.2416 33.699C30.0505 34.241 29.7736 34.7659 29.5321 35.2999C30.4807 35.245 31.5438 34.2776 31.5747 33.3834C31.6159 32.2308 31.9008 31.1811 32.576 30.2251C32.9467 29.6991 33.2191 29.1045 33.5875 28.4493C33.8793 29.7963 33.6436 31.0244 33.4033 32.304C33.536 32.2765 33.6757 32.2914 33.7294 32.2296C34.1605 31.7334 34.58 31.2272 34.9882 30.7111C35.0084 30.6684 35.0188 30.6217 35.0188 30.5745C35.0188 30.5272 35.0084 30.4805 34.9882 30.4378C34.3611 29.0656 34.7193 27.7118 35.0145 26.351C35.1601 25.6031 35.3559 24.8658 35.6004 24.1441C35.7755 24.8839 36.0215 25.6158 36.1085 26.3659C36.1954 27.116 36.1279 27.8936 36.1279 28.7672C36.2961 28.63 36.4094 28.5808 36.4495 28.4973C36.771 27.8284 37.0971 27.1606 37.3798 26.4757C37.4553 26.2939 37.4713 25.9954 37.3706 25.8468C36.7863 24.9944 36.4479 23.998 36.3922 22.9663C36.3442 22.0916 36.2778 21.2191 36.2217 20.3455C36.2286 20.1464 36.2469 19.9479 36.2767 19.7509C37.1063 21.0887 37.9691 22.2151 38.0229 23.729L38.2071 23.7187C38.2704 23.5637 38.3239 23.4048 38.3673 23.2431C38.6168 22.0641 38.7106 21.027 37.7482 19.9521C36.7184 18.8086 36.43 17.1952 36.0032 15.7133C35.9906 15.6698 36.0238 15.6138 36.0558 15.4777C37.0502 16.5205 38.2105 17.3473 38.4726 18.8761L38.7015 18.7903C38.6774 18.5102 38.6328 18.23 38.6339 17.951C38.6408 16.7938 38.3353 15.8722 37.2676 15.1678C36.6211 14.7424 36.2092 13.9489 35.7228 13.2971C35.2949 12.7253 34.9104 12.117 34.4229 11.4035C35.0832 11.7797 35.6622 12.0576 36.1805 12.4223C36.6989 12.7871 37.1486 13.2342 37.6979 13.5932C37.2757 12.7711 37.4107 11.7248 36.271 11.2079C35.3097 10.7711 34.5099 9.97642 33.6459 9.32921C33.2649 9.05088 32.9143 8.73314 32.6 8.38127C33.7031 8.40414 34.646 8.89126 35.6084 9.46757C35.4333 8.56308 34.5259 7.73063 33.7718 7.57283C32.9738 7.40399 32.189 7.17775 31.4237 6.89589C30.7508 6.64776 30.118 6.29214 29.4669 5.98111C29.4738 5.92051 29.4795 5.86676 29.4852 5.80044L32.8323 6.08974C32.5554 5.40365 31.7177 4.96227 30.9316 4.96342C29.4165 4.96342 27.9015 4.87994 26.3864 4.83077C26.3761 4.74615 26.3647 4.66154 26.3544 4.57806C26.9551 4.40883 27.5479 4.17442 28.1612 4.0898C28.7746 4.00518 29.404 4.0715 30.0265 4.0715L30.1066 3.92056C29.9761 3.80622 29.8422 3.69759 29.7175 3.57752C29.4738 3.34882 29.2346 3.10641 28.9943 2.87085L28.9828 2.89944Z" fill="#B2DBAC"/>
<path d="M38.2719 33.1707C35.8025 35.1752 33.1534 36.3198 31.4427 35.229C33.309 33.2176 35.7808 33.3388 38.2719 33.1707Z" fill="#B2DBAC"/>
<path d="M37.8909 6.31045C38.3704 8.25436 39.5021 10.0496 38.0511 11.9615C36.7649 10.6808 36.9938 7.56827 37.8909 6.31045Z" fill="#B2DBAC"/>
<path d="M34.0461 2.76562C35.203 4.05318 36.2397 5.26412 36.0452 7.03995C36.0212 7.25721 35.8655 7.46074 35.7706 7.67C35.576 7.55565 35.3529 7.48476 35.1927 7.33954C33.8321 6.10115 34.0724 4.4614 34.0461 2.76562Z" fill="#B2DBAC"/>
<path d="M28.9834 2.89939L29.0028 2.87423C28.2602 2.87995 27.5564 2.67069 27.0106 2.19729C26.3669 1.61383 25.7848 0.965897 25.2735 0.263672C26.5769 0.564407 27.9798 0.631872 28.7065 1.98575C28.8541 2.26018 28.8941 2.59294 28.9834 2.89939Z" fill="#B2DBAC"/>
</g>
<defs>
<clipPath id="clip0_57_236">
<rect width="41.5842" height="40" fill="white" transform="translate(0.604004 0.25)"/>
</clipPath>
</defs>
</svg>
