<svg width="203" height="50" viewBox="0 0 203 50" fill="none" xmlns="http://www.w3.org/2000/svg">
<g clip-path="url(#clip0_52_4896)">
<path d="M49.5464 22.5211C49.2649 22.2396 48.8739 22.0597 48.4439 22.0597C47.4507 22.0597 46.8799 21.2699 46.8799 20.4801C46.8799 19.9015 47.1849 19.315 47.8652 19.0491C48.6628 18.7285 49.0538 17.8214 48.741 17.0238L47.7166 14.4589C47.396 13.6612 46.4889 13.2703 45.6913 13.5909L44.1899 14.1852C42.6181 14.8108 41.3122 12.8323 42.5086 11.6359L43.6503 10.4942C44.2602 9.88427 44.2602 8.89897 43.6503 8.28902L41.7032 6.34188C41.0932 5.73194 40.1079 5.73194 39.498 6.34188C38.4579 7.38974 36.8314 6.52956 36.8314 5.26275C36.8314 5.05943 36.8705 4.84048 36.9722 4.62152C37.3084 3.83172 36.9487 2.9168 36.1589 2.57272L33.6253 1.48577C32.8355 1.14952 31.9205 1.50923 31.5765 2.29903L30.9353 3.7848C30.2627 5.34094 27.9481 4.86394 27.9481 3.16703V1.55615C27.9481 0.695965 27.2521 0 26.3919 0H23.6315C23.2014 0 22.8104 0.172036 22.5289 0.46137C22.2474 0.742884 22.0676 1.13388 22.0676 1.56397C22.0676 3.28433 19.6982 3.73788 19.0647 2.14263C18.7441 1.34501 17.837 0.954019 17.0394 1.26681L14.4745 2.28339C13.6769 2.604 13.2859 3.5111 13.6065 4.30873L14.2008 5.81013C14.8264 7.38192 12.848 8.68783 11.6515 7.4914L10.5099 6.3497C9.89991 5.73976 8.91461 5.73976 8.30466 6.3497L6.35752 8.29684C6.05255 8.60181 5.90397 9.00063 5.90397 9.39944C5.90397 9.79825 6.06037 10.1971 6.35752 10.502C7.5696 11.7141 6.21677 13.716 4.63716 13.0357C3.84736 12.6916 2.93244 13.0591 2.58836 13.8489L1.50141 16.3825C1.15733 17.1723 1.52487 18.0873 2.31467 18.4313L3.80044 19.0726C5.35658 19.7451 4.87957 22.0597 3.18267 22.0597H1.55615C0.695965 22.0597 0 22.7557 0 23.6159V26.3763C0 26.8064 0.172036 27.1974 0.46137 27.4789C0.742884 27.7604 1.13388 27.9324 1.56397 27.9324C3.28433 27.9324 3.73788 30.3018 2.14263 30.9353C1.34501 31.2559 0.954019 32.163 1.27463 32.9606L2.29903 35.5255C2.61964 36.3231 3.52674 36.7141 4.32437 36.3935L5.82577 35.7914C7.39756 35.1658 8.70347 37.1442 7.50704 38.3406L6.36534 39.4823C5.7554 40.0923 5.7554 41.0776 6.36534 41.6875L8.31248 43.6347C8.61745 43.9396 9.01626 44.096 9.41508 44.096C9.81389 44.096 10.2127 43.9396 10.5177 43.6347C11.5655 42.5868 13.1921 43.447 13.1921 44.7138C13.1921 44.9171 13.1451 45.1361 13.0513 45.355C12.7072 46.1448 13.0748 47.0597 13.8646 47.4038L16.3982 48.4908C17.188 48.827 18.1029 48.4673 18.447 47.6775L19.0882 46.1917C19.7607 44.6356 22.0754 45.1126 22.0754 46.8095V48.4282C22.0754 49.2884 22.7713 49.9844 23.6315 49.9844H26.3919C26.822 49.9844 27.213 49.8123 27.4945 49.5308C27.776 49.2493 27.9481 48.8583 27.9481 48.4282C27.9481 46.7079 30.3175 46.2543 30.9509 47.8495C31.2715 48.6472 32.1786 49.0382 32.9762 48.7254L35.5411 47.7088C36.3388 47.3882 36.7297 46.4811 36.417 45.6835L35.8148 44.182C35.1892 42.6103 37.1677 41.3043 38.3641 42.5008L39.5058 43.6425C40.1157 44.2524 41.101 44.2524 41.711 43.6425L43.6581 41.6953C44.2681 41.0854 44.2681 40.1001 43.6581 39.4901C42.446 38.2781 43.7989 36.2762 45.3785 36.9565C46.1683 37.2928 47.0832 36.9331 47.4273 36.1433L48.5142 33.6096C48.8505 32.8198 48.4908 31.9049 47.701 31.5608L46.2152 30.9196C44.6591 30.2471 45.1361 27.9324 46.833 27.9324H48.4517C49.3119 27.9324 50.0078 27.2365 50.0078 26.3763V23.6159C50.0078 23.1858 49.8358 22.7948 49.5543 22.5133L49.5464 22.5211ZM25 41.7423C15.757 41.7423 8.26556 34.243 8.26556 25C8.26556 15.757 15.757 8.25774 25 8.25774C34.243 8.25774 41.7423 15.757 41.7423 25C41.7423 34.243 34.2509 41.7423 25 41.7423Z" fill="#CC060D"/>
<path d="M49.5465 22.5211C49.2649 22.2396 48.8739 22.0597 48.4439 22.0597C47.4586 22.0597 46.8877 21.2778 46.8877 20.488C46.8877 19.9093 47.1927 19.3306 47.873 19.0569C48.1702 18.9396 48.4126 18.7363 48.5768 18.4939C48.8661 18.0794 48.9443 17.5321 48.741 17.0316L47.7166 14.4667C47.701 14.4119 47.6775 14.365 47.6462 14.3181C47.2787 13.6221 46.4342 13.2937 45.6913 13.5909L44.1899 14.193C42.6181 14.8186 41.3122 12.8402 42.5086 11.6437L43.6503 10.502C44.2602 9.89208 44.2602 8.90678 43.6503 8.29683L41.7032 6.3497C41.5546 6.20112 41.3825 6.08382 41.1949 6.01344C40.6318 5.77885 39.9593 5.89615 39.498 6.3497C38.4579 7.38973 36.8314 6.53737 36.8314 5.27056C36.8314 5.19236 36.8314 5.10634 36.8549 5.02032C36.8705 4.89521 36.9096 4.76227 36.9722 4.62933C37.3084 3.83953 36.9487 2.91679 36.1589 2.58054L33.6253 1.49358C32.8355 1.15733 31.9127 1.51704 31.5765 2.30684L30.9353 3.79261C30.2627 5.34876 27.9481 4.87175 27.9481 3.17484V1.56396C27.9481 1.05567 27.7057 0.60212 27.3303 0.328426C27.0644 0.12511 26.7438 0.0078125 26.3919 0.0078125H23.6315C23.35 0.0078125 23.092 0.078191 22.8652 0.211128C22.7401 0.281507 22.6306 0.367525 22.5289 0.461363C22.2474 0.742877 22.0676 1.13387 22.0676 1.56396C22.0676 3.2765 19.6982 3.73787 19.0647 2.14263C18.7441 1.33718 17.837 0.946192 17.0394 1.26681L14.4745 2.28338C13.6769 2.604 13.2859 3.5111 13.6065 4.30872L14.2008 5.81013C14.3885 6.2715 14.3416 6.72505 14.1617 7.07694C13.7238 7.9293 12.4961 8.32811 11.6515 7.48357L10.5099 6.34188C10.0485 5.88051 9.36816 5.77103 8.80513 6.00562C8.62527 6.08382 8.45324 6.1933 8.30466 6.34188L6.35752 8.28901C6.05255 8.59399 5.89615 8.9928 5.89615 9.39161C5.89615 9.79042 6.05255 10.1892 6.35752 10.4942C7.5696 11.7063 6.21677 13.7082 4.63716 13.0278C3.84736 12.6838 2.93244 13.0513 2.58836 13.8411L2.37723 14.3259L1.49359 16.3669C1.15734 17.1567 1.51705 18.0716 2.30685 18.4157L3.79262 19.0569C4.29309 19.2681 4.58242 19.6512 4.68408 20.0735C4.91867 20.9728 4.33219 22.0519 3.17485 22.0519H1.55615C0.703785 22.0597 0 22.7635 0 23.6237V26.3841C0 26.8142 0.172036 27.2052 0.45355 27.4867C0.735064 27.776 1.12606 27.9481 1.55615 27.9481C1.7751 27.9481 1.9706 27.9872 2.15045 28.0576C3.35471 28.5267 3.52674 30.3957 2.13481 30.9509C1.79074 31.0916 1.51705 31.3419 1.34501 31.6469C1.12606 32.0378 1.07914 32.5227 1.25899 32.9762L2.27557 35.5411C2.59618 36.3388 3.50328 36.7297 4.30091 36.4091L5.80231 35.8148C7.23334 35.244 8.44542 36.8314 7.74163 38.0278C7.67125 38.1451 7.58524 38.2624 7.48358 38.3641L6.34188 39.5058C5.73194 40.1157 5.73194 41.101 6.34188 41.711L6.86581 42.2349L8.28902 43.6581C8.594 43.9631 8.99281 44.1195 9.39162 44.1195C9.79043 44.1195 10.1892 43.9631 10.4942 43.6581C11.5421 42.6103 13.1686 43.4704 13.1686 44.7372C13.1686 44.9406 13.1217 45.1517 13.0278 45.3785C12.8011 45.9024 12.8871 46.4811 13.1999 46.919C13.3641 47.1379 13.5752 47.31 13.8411 47.4273L16.0698 48.3891L16.3747 48.522C17.1645 48.8583 18.0795 48.4986 18.4235 47.7088L19.0647 46.223C19.7373 44.6669 22.0519 45.1439 22.0519 46.833V48.4517C22.0519 49.2728 22.6931 49.9531 23.4986 50.0078C23.5377 50.0078 23.569 50.0078 23.6081 50.0078H26.3685C26.4701 50.0078 26.564 50 26.6578 49.9765C26.9706 49.9218 27.2443 49.7654 27.4632 49.5464C27.7526 49.2649 27.9246 48.8739 27.9246 48.4439C27.9246 46.7313 30.294 46.2699 30.9274 47.8652C31.248 48.6706 32.1551 49.0616 32.9528 48.741L33.8911 48.3657L35.5177 47.7244C36.0572 47.5133 36.4091 47.0285 36.4795 46.4889C36.5186 46.2308 36.4873 45.9571 36.3857 45.6991L35.7835 44.1977C35.158 42.6259 37.1364 41.32 38.3328 42.5164L39.4745 43.6581C40.0845 44.2681 41.0698 44.2681 41.6797 43.6581L43.1029 42.2349L43.6268 41.711C44.2368 41.101 44.2368 40.1157 43.6268 39.5058C43.3219 39.2008 43.1733 38.8411 43.1655 38.4892C43.1185 37.4492 44.1742 36.4717 45.3472 36.9722C46.137 37.3084 47.0519 36.9409 47.396 36.1511L48.483 33.6175C48.8192 32.8355 48.4673 31.9205 47.6853 31.5765C47.6853 31.5765 47.6775 31.5765 47.6697 31.5765L46.1839 30.9352C44.9328 30.3957 44.9953 28.7926 45.9493 28.1827C46.1839 28.0341 46.4654 27.9481 46.7939 27.9481H48.4126C49.2728 27.9481 49.9687 27.2521 49.9687 26.3919V23.6315C49.9687 23.2014 49.7967 22.8104 49.5152 22.5289L49.5465 22.5211ZM40.6006 31.0916C39.9202 32.8276 38.9584 34.4307 37.7698 35.8305C37.2615 36.4326 36.7063 36.9956 36.1198 37.5195C34.9546 38.5596 33.6409 39.4276 32.2255 40.1079C31.9362 40.2487 31.639 40.3738 31.3341 40.4989C29.5433 41.234 27.5962 41.6641 25.5552 41.7266C25.3754 41.7266 25.1877 41.7344 25.0078 41.7344C24.828 41.7344 24.6403 41.7344 24.4604 41.7266C22.4273 41.6641 20.4723 41.234 18.6816 40.4989C18.3766 40.3738 18.0795 40.2487 17.7901 40.1079C16.3669 39.4276 15.061 38.5518 13.8958 37.5195C13.3094 36.9956 12.7541 36.4326 12.238 35.8226C11.0494 34.4229 10.0876 32.8276 9.41508 31.0916C9.08664 30.2549 8.82859 29.3869 8.64091 28.4876C8.3985 27.3616 8.27338 26.1964 8.27338 25C8.27338 23.9678 8.36722 22.9512 8.54708 21.9737C8.73475 20.9571 9.00845 19.9797 9.36816 19.0335C10.2596 16.6953 11.6594 14.5996 13.4423 12.9027C14.2321 12.1442 15.1001 11.4639 16.0228 10.8696C18.1967 9.48545 20.7147 8.58617 23.4204 8.33593C23.9443 8.28119 24.4761 8.25773 25.0078 8.25773C25.6021 8.25773 26.1964 8.28901 26.7751 8.35157C29.4104 8.62527 31.8658 9.51673 33.9928 10.8696C34.9234 11.456 35.7836 12.1364 36.5734 12.8949C38.3485 14.5918 39.756 16.6797 40.6475 19.0256C41.0072 19.9718 41.2887 20.9571 41.4686 21.9659C41.6484 22.9512 41.7423 23.96 41.7423 24.9922C41.7423 26.1886 41.6171 27.3538 41.3747 28.4798C41.187 29.3713 40.929 30.2471 40.6006 31.0838V31.0916Z" fill="url(#paint0_linear_52_4896)"/>
<path fill-rule="evenodd" clip-rule="evenodd" d="M21.53 29.9C21.31 29.9 21.12 29.73 21.09 29.51C21.06 29.27 20.98 29.04 20.86 28.82L20.16 27.55C20.1 27.45 20.09 27.33 20.12 27.21C20.15 27.09 20.23 27 20.33 26.95C20.4 26.91 20.47 26.89 20.54 26.89C20.7 26.89 20.85 26.98 20.93 27.12L21.63 28.39C21.8 28.7 21.91 29.04 21.96 29.39C21.98 29.51 21.94 29.62 21.87 29.72C21.8 29.82 21.69 29.87 21.58 29.89H21.52L21.53 29.9ZM23.16 29.01C23.06 29.01 22.96 28.97 22.88 28.91C22.6 28.68 22.37 28.41 22.2 28.09L20.89 25.72C20.83 25.62 20.82 25.5 20.85 25.38C20.88 25.27 20.96 25.17 21.06 25.11C21.13 25.07 21.2 25.05 21.27 25.05C21.43 25.05 21.58 25.14 21.66 25.28L22.97 27.65C23.09 27.87 23.25 28.06 23.44 28.21C23.53 28.28 23.59 28.39 23.6 28.51C23.61 28.63 23.58 28.74 23.5 28.83C23.42 28.93 23.29 28.99 23.16 28.99V29.01Z" fill="white"/>
<path fill-rule="evenodd" clip-rule="evenodd" d="M17.93 27.7C17.82 27.7 17.72 27.68 17.61 27.66C17.32 27.57 17.07 27.38 16.93 27.11L14.14 22.06C13.99 21.79 13.96 21.48 14.04 21.19C14.12 20.9 14.32 20.65 14.59 20.51L19.28 17.92C19.45 17.83 19.64 17.78 19.83 17.78C19.94 17.78 20.04 17.8 20.15 17.82C20.44 17.91 20.69 18.1 20.83 18.37L23.61 23.41C23.76 23.68 23.79 23.99 23.71 24.28C23.62 24.57 23.43 24.82 23.16 24.96L18.47 27.55C18.3 27.64 18.11 27.69 17.92 27.69L17.93 27.7ZM19.83 18.66C19.83 18.66 19.74 18.67 19.7 18.69L15.02 21.28C14.96 21.31 14.92 21.37 14.9 21.44C14.88 21.51 14.89 21.58 14.92 21.64L17.7 26.69C17.73 26.75 17.79 26.79 17.85 26.81C17.88 26.81 17.9 26.81 17.93 26.81C17.99 26.81 18.02 26.8 18.05 26.78L22.74 24.19C22.8 24.16 22.84 24.1 22.86 24.03C22.88 23.96 22.87 23.89 22.84 23.83L20.06 18.79C20.03 18.73 19.97 18.69 19.9 18.67H19.83V18.66Z" fill="white"/>
<path fill-rule="evenodd" clip-rule="evenodd" d="M15.55 24.14C15.39 24.14 15.24 24.05 15.16 23.91C15.1 23.81 15.09 23.69 15.12 23.57C15.15 23.45 15.23 23.36 15.33 23.3L16.21 22.81C16.28 22.77 16.35 22.75 16.42 22.75C16.58 22.75 16.73 22.84 16.81 22.98C16.87 23.08 16.88 23.2 16.85 23.32C16.82 23.43 16.74 23.53 16.64 23.58L15.76 24.07C15.69 24.11 15.62 24.13 15.55 24.13V24.14ZM17.45 23.09C17.29 23.09 17.14 23 17.06 22.86C16.94 22.65 17.02 22.38 17.23 22.26L21.25 20.05C21.32 20.01 21.39 19.99 21.46 19.99C21.62 19.99 21.77 20.08 21.85 20.22C21.91 20.32 21.92 20.44 21.89 20.56C21.86 20.67 21.78 20.77 21.68 20.82L17.66 23.03C17.59 23.07 17.52 23.08 17.45 23.08V23.09Z" fill="white"/>
<path fill-rule="evenodd" clip-rule="evenodd" d="M19.47 25.1C19.03 25.1 18.63 24.86 18.41 24.48C18.09 23.9 18.3 23.16 18.88 22.84C19.06 22.74 19.26 22.69 19.46 22.69C19.9 22.69 20.3 22.93 20.52 23.31C20.84 23.89 20.63 24.63 20.05 24.95C19.87 25.05 19.67 25.1 19.47 25.1ZM19.47 23.58C19.42 23.58 19.36 23.59 19.32 23.62C19.17 23.7 19.11 23.9 19.19 24.05C19.25 24.15 19.35 24.22 19.47 24.22C19.52 24.22 19.58 24.21 19.62 24.18C19.69 24.14 19.75 24.07 19.77 23.99C19.79 23.91 19.78 23.82 19.74 23.75C19.68 23.65 19.58 23.58 19.46 23.58H19.47Z" fill="white"/>
<path fill-rule="evenodd" clip-rule="evenodd" d="M14.91 22.91C14.75 22.91 14.6 22.82 14.52 22.68C14.46 22.58 14.45 22.46 14.48 22.34C14.51 22.22 14.59 22.13 14.69 22.08L20.45 18.9C20.52 18.86 20.59 18.84 20.66 18.84C20.82 18.84 20.97 18.93 21.05 19.07C21.11 19.17 21.12 19.29 21.09 19.41C21.06 19.52 20.98 19.62 20.88 19.67L15.12 22.85C15.05 22.89 14.98 22.91 14.91 22.91Z" fill="white"/>
<path fill-rule="evenodd" clip-rule="evenodd" d="M23.97 35.97C23.3 35.97 22.64 35.8 22.06 35.48C20.14 34.42 19.44 32 20.5 30.09C21.11 28.99 22.22 28.23 23.47 28.07C24.23 27.97 24.91 27.51 25.28 26.84L26.85 24.01C26.93 23.87 27.08 23.78 27.24 23.78C27.31 23.78 27.39 23.8 27.45 23.84C27.55 23.9 27.63 23.99 27.66 24.1C27.69 24.21 27.68 24.33 27.62 24.44L26.06 27.27C25.55 28.19 24.63 28.82 23.59 28.95C22.62 29.08 21.75 29.66 21.28 30.52C20.88 31.24 20.79 32.07 21.02 32.87C21.25 33.66 21.77 34.32 22.49 34.71C22.95 34.96 23.46 35.09 23.98 35.09C25.11 35.09 26.14 34.48 26.69 33.5C27.16 32.64 27.2 31.6 26.78 30.71C26.34 29.76 26.38 28.64 26.89 27.72L28.45 24.89C28.53 24.75 28.68 24.66 28.84 24.66C28.91 24.66 28.99 24.68 29.05 24.72C29.26 24.84 29.34 25.11 29.22 25.32L27.66 28.15C27.29 28.82 27.26 29.64 27.58 30.34C28.11 31.48 28.07 32.82 27.46 33.93C26.76 35.2 25.43 35.98 23.98 35.98L23.97 35.97Z" fill="white"/>
<path fill-rule="evenodd" clip-rule="evenodd" d="M31.29 26.79C31.1 26.79 30.91 26.74 30.74 26.65L24.89 23.42C24.63 23.27 24.43 23.03 24.34 22.74C24.26 22.45 24.29 22.14 24.44 21.87L27.9 15.59C28.05 15.32 28.29 15.13 28.58 15.04C28.68 15.01 28.79 15 28.9 15C29.09 15 29.28 15.05 29.45 15.14L35.3 18.37C35.57 18.52 35.76 18.76 35.85 19.05C35.93 19.34 35.9 19.66 35.75 19.92L32.29 26.2C32.14 26.47 31.9 26.66 31.61 26.75C31.51 26.78 31.4 26.79 31.29 26.79ZM28.9 15.89C28.9 15.89 28.85 15.89 28.83 15.9C28.76 15.92 28.71 15.96 28.68 16.02L25.22 22.3C25.19 22.36 25.18 22.43 25.2 22.5C25.22 22.57 25.26 22.62 25.32 22.66L31.17 25.89C31.17 25.89 31.25 25.92 31.29 25.92C31.43 25.89 31.49 25.85 31.52 25.79L34.98 19.51C35.01 19.45 35.02 19.38 35 19.31C34.98 19.24 34.94 19.19 34.88 19.15L29.03 15.92C29.03 15.92 28.95 15.89 28.91 15.89H28.9Z" fill="white"/>
<path fill-rule="evenodd" clip-rule="evenodd" d="M23.97 34.42C23.56 34.42 23.16 34.32 22.8 34.12C22.23 33.81 21.82 33.29 21.64 32.67C21.46 32.05 21.53 31.39 21.85 30.83C21.93 30.69 22.08 30.6 22.24 30.6C22.31 30.6 22.39 30.62 22.45 30.66C22.55 30.72 22.63 30.81 22.66 30.92C22.69 31.03 22.68 31.15 22.62 31.26C22.42 31.62 22.38 32.03 22.49 32.43C22.6 32.83 22.86 33.15 23.22 33.35C23.45 33.47 23.7 33.54 23.96 33.54C24.52 33.54 25.04 33.24 25.31 32.75C25.51 32.39 25.55 31.98 25.44 31.58C25.33 31.18 25.07 30.86 24.71 30.66C24.48 30.54 24.23 30.47 23.97 30.47C23.79 30.47 23.62 30.5 23.46 30.56C23.41 30.58 23.36 30.59 23.31 30.59C23.12 30.59 22.96 30.47 22.89 30.29C22.81 30.06 22.93 29.81 23.16 29.73C23.42 29.64 23.69 29.59 23.97 29.59C24.38 29.59 24.78 29.69 25.14 29.89C26.31 30.53 26.73 32.01 26.09 33.18C25.66 33.95 24.85 34.43 23.97 34.43V34.42Z" fill="white"/>
<path fill-rule="evenodd" clip-rule="evenodd" d="M34.2 22.26C34.13 22.26 34.05 22.24 33.99 22.2L28.99 19.44C28.89 19.38 28.81 19.29 28.78 19.17C28.75 19.06 28.76 18.94 28.82 18.83C28.9 18.69 29.05 18.6 29.21 18.6C29.28 18.6 29.36 18.62 29.42 18.66L34.42 21.42C34.63 21.54 34.71 21.81 34.59 22.02C34.51 22.16 34.36 22.25 34.2 22.25V22.26ZM28.17 18.94C28.1 18.94 28.02 18.92 27.96 18.88L26.92 18.3C26.71 18.18 26.63 17.91 26.75 17.7C26.83 17.56 26.98 17.47 27.14 17.47C27.21 17.47 27.29 17.49 27.35 17.53L28.39 18.11C28.49 18.17 28.57 18.26 28.6 18.37C28.63 18.48 28.62 18.6 28.56 18.71C28.48 18.85 28.33 18.94 28.17 18.94Z" fill="white"/>
<path fill-rule="evenodd" clip-rule="evenodd" d="M29.43 23.45C29.2 23.45 28.98 23.39 28.78 23.28C28.42 23.08 28.17 22.74 28.1 22.33C28.08 22.21 28.1 22.1 28.17 22C28.24 21.9 28.34 21.84 28.46 21.82H28.48C28.76 21.82 28.94 21.97 28.98 22.18C29 22.32 29.09 22.44 29.22 22.51C29.29 22.55 29.37 22.57 29.45 22.57C29.62 22.57 29.78 22.48 29.86 22.33C29.92 22.22 29.94 22.09 29.9 21.97C29.86 21.85 29.79 21.75 29.68 21.69C29.61 21.65 29.53 21.63 29.45 21.63C29.41 21.63 29.37 21.63 29.33 21.65H29.22C29.02 21.66 28.84 21.53 28.79 21.33C28.73 21.09 28.87 20.85 29.11 20.79C29.22 20.76 29.34 20.75 29.45 20.75C29.68 20.75 29.9 20.81 30.1 20.92C30.42 21.09 30.65 21.38 30.75 21.73C30.85 22.08 30.81 22.44 30.63 22.76C30.39 23.19 29.94 23.46 29.44 23.46L29.43 23.45Z" fill="white"/>
<path fill-rule="evenodd" clip-rule="evenodd" d="M34.95 20.9C34.88 20.9 34.8 20.88 34.74 20.84L27.66 16.94C27.56 16.88 27.48 16.79 27.45 16.68C27.42 16.57 27.43 16.45 27.49 16.34C27.57 16.2 27.72 16.11 27.88 16.11C27.95 16.11 28.03 16.13 28.09 16.17L35.17 20.07C35.38 20.19 35.46 20.46 35.34 20.67C35.26 20.81 35.11 20.9 34.95 20.9Z" fill="white"/>
</g>
<path d="M62.07 21.2287L62.226 17.5107H71.56L71.69 21.2287H62.07ZM66.828 13.4287L64.436 18.8887L64.748 20.0067L62.642 24.1667H56.922L66.828 4.74469L76.76 24.1667H71.04L68.96 20.1887L69.246 18.8887L66.828 13.4287ZM79.4597 5.96669H84.5037V17.7707C84.5037 18.6027 84.7204 19.2787 85.1537 19.7987C85.5871 20.3014 86.2371 20.5527 87.1037 20.5527C87.9877 20.5527 88.6464 20.3014 89.0797 19.7987C89.5131 19.2787 89.7297 18.6027 89.7297 17.7707V5.96669H94.7737V18.1867C94.7737 19.4174 94.5744 20.466 94.1757 21.3327C93.7771 22.1994 93.2224 22.91 92.5117 23.4647C91.8011 24.002 90.9864 24.4007 90.0677 24.6607C89.1491 24.9207 88.1611 25.0507 87.1037 25.0507C86.0637 25.0507 85.0757 24.9207 84.1397 24.6607C83.2211 24.4007 82.4064 24.002 81.6957 23.4647C81.0024 22.91 80.4564 22.1994 80.0577 21.3327C79.6591 20.466 79.4597 19.4174 79.4597 18.1867V5.96669ZM97.5988 10.4647V5.96669H112.835V10.4647H107.739V24.1667H102.695V10.4647H97.5988ZM115.795 5.96669H120.839V24.1667H115.795V5.96669ZM119.019 10.0487V5.96669H122.529C124.193 5.96669 125.562 6.21802 126.637 6.72069C127.729 7.20602 128.535 7.89935 129.055 8.80069C129.592 9.70202 129.861 10.7854 129.861 12.0507C129.861 13.2987 129.592 14.382 129.055 15.3007C128.535 16.2194 127.729 16.9214 126.637 17.4067C125.562 17.892 124.193 18.1347 122.529 18.1347H119.019V14.0787H122.529C123.326 14.0787 123.941 13.9054 124.375 13.5587C124.808 13.212 125.025 12.7094 125.025 12.0507C125.025 11.4094 124.808 10.9154 124.375 10.5687C123.941 10.222 123.326 10.0487 122.529 10.0487H119.019ZM134.962 21.2287L135.118 17.5107H144.452L144.582 21.2287H134.962ZM139.72 13.4287L137.328 18.8887L137.64 20.0067L135.534 24.1667H129.814L139.72 4.74469L149.652 24.1667H143.932L141.852 20.1887L142.138 18.8887L139.72 13.4287ZM157.422 16.1327H162.596L168.056 24.1667H162.18L157.422 16.1327ZM152.482 5.96669H157.526V24.1667H152.482V5.96669ZM155.706 10.2307V5.96669H159.632C161.296 5.96669 162.665 6.22669 163.74 6.74669C164.832 7.26669 165.638 7.98602 166.158 8.90469C166.695 9.80602 166.964 10.8547 166.964 12.0507C166.964 13.2294 166.695 14.2867 166.158 15.2227C165.638 16.1414 164.832 16.8607 163.74 17.3807C162.665 17.8834 161.296 18.1347 159.632 18.1347H155.706V14.3127H159.216C159.753 14.3127 160.204 14.2347 160.568 14.0787C160.932 13.9227 161.209 13.6887 161.4 13.3767C161.608 13.0647 161.712 12.692 161.712 12.2587C161.712 11.8254 161.608 11.4614 161.4 11.1667C161.209 10.8547 160.932 10.6207 160.568 10.4647C160.204 10.3087 159.753 10.2307 159.216 10.2307H155.706ZM169.196 10.4647V5.96669H184.432V10.4647H179.336V24.1667H174.292V10.4647H169.196ZM189.784 17.5107C190.148 18.152 190.556 18.7067 191.006 19.1747C191.457 19.6254 191.951 19.972 192.488 20.2147C193.026 20.4574 193.58 20.5787 194.152 20.5787C194.707 20.5787 195.166 20.4574 195.53 20.2147C195.894 19.9547 196.076 19.582 196.076 19.0967C196.076 18.75 195.972 18.464 195.764 18.2387C195.556 17.996 195.192 17.7534 194.672 17.5107C194.17 17.268 193.459 16.9734 192.54 16.6267C192.09 16.4534 191.587 16.228 191.032 15.9507C190.478 15.656 189.94 15.2834 189.42 14.8327C188.918 14.382 188.493 13.8274 188.146 13.1687C187.817 12.51 187.652 11.73 187.652 10.8287C187.652 9.68469 187.956 8.72269 188.562 7.94269C189.169 7.14535 189.975 6.53869 190.98 6.12269C191.986 5.70669 193.104 5.49869 194.334 5.49869C195.617 5.49869 196.726 5.70669 197.662 6.12269C198.598 6.52135 199.37 7.03269 199.976 7.65669C200.583 8.26335 201.051 8.87869 201.38 9.50269L197.584 11.6087C197.324 11.1754 197.021 10.82 196.674 10.5427C196.345 10.248 195.99 10.0227 195.608 9.86669C195.227 9.71069 194.837 9.63269 194.438 9.63269C193.936 9.63269 193.537 9.73669 193.242 9.94469C192.948 10.1527 192.8 10.43 192.8 10.7767C192.8 11.1754 192.965 11.5134 193.294 11.7907C193.641 12.0507 194.109 12.302 194.698 12.5447C195.305 12.77 195.998 13.0214 196.778 13.2987C197.454 13.5414 198.07 13.836 198.624 14.1827C199.196 14.512 199.69 14.9107 200.106 15.3787C200.522 15.8294 200.843 16.3494 201.068 16.9387C201.294 17.528 201.406 18.1867 201.406 18.9147C201.406 19.8854 201.207 20.7434 200.808 21.4887C200.427 22.234 199.898 22.858 199.222 23.3607C198.564 23.846 197.81 24.21 196.96 24.4527C196.111 24.7127 195.244 24.8427 194.36 24.8427C193.112 24.8427 191.951 24.626 190.876 24.1927C189.819 23.7767 188.9 23.2047 188.12 22.4767C187.34 21.7314 186.751 20.908 186.352 20.0067L189.784 17.5107Z" fill="white"/>
<path d="M68.0826 34.4333C67.8986 36.0093 67.6586 37.4373 67.3626 38.7173C67.0666 39.9893 66.6586 41.3613 66.1386 42.8333H64.5186C64.0786 41.4493 63.7546 40.3773 63.5466 39.6173C63.3386 38.8573 63.1626 38.0773 63.0186 37.2773C62.8586 38.1653 62.6706 39.0093 62.4546 39.8093C62.2386 40.6093 61.9306 41.6173 61.5306 42.8333H59.9106C59.3746 41.3933 58.9466 40.0333 58.6266 38.7533C58.3146 37.4733 58.0546 36.0333 57.8466 34.4333H59.3466C59.5066 35.8573 59.6786 37.0373 59.8626 37.9733C60.0546 38.9013 60.3386 39.9773 60.7146 41.2013C61.0426 40.2093 61.3146 39.2773 61.5306 38.4053C61.7546 37.5333 62.0546 36.2093 62.4306 34.4333H63.5706C64.0506 36.4813 64.3906 37.9053 64.5906 38.7053C64.7986 39.4973 65.0426 40.3253 65.3226 41.1893C65.6826 39.9973 65.9506 38.9373 66.1266 38.0093C66.3026 37.0813 66.4666 35.8893 66.6186 34.4333H68.0826ZM72.5924 42.9533C71.6324 42.9533 70.8964 42.6573 70.3844 42.0653C69.8724 41.4733 69.6164 40.6253 69.6164 39.5213C69.6164 38.4173 69.8724 37.5733 70.3844 36.9893C70.8964 36.4053 71.6324 36.1133 72.5924 36.1133C73.5524 36.1133 74.2844 36.4053 74.7884 36.9893C75.3004 37.5733 75.5564 38.4173 75.5564 39.5213C75.5564 40.6333 75.3004 41.4853 74.7884 42.0773C74.2764 42.6613 73.5444 42.9533 72.5924 42.9533ZM72.5924 41.9573C73.1124 41.9573 73.4884 41.7653 73.7204 41.3813C73.9604 40.9893 74.0804 40.3693 74.0804 39.5213C74.0804 38.6813 73.9604 38.0693 73.7204 37.6853C73.4884 37.3013 73.1124 37.1093 72.5924 37.1093C72.0724 37.1093 71.6924 37.3013 71.4524 37.6853C71.2204 38.0613 71.1044 38.6733 71.1044 39.5213C71.1044 40.3773 71.2204 40.9973 71.4524 41.3813C71.6924 41.7653 72.0724 41.9573 72.5924 41.9573ZM80.2789 42.9533C79.3189 42.9533 78.5829 42.6573 78.0709 42.0653C77.5589 41.4733 77.3029 40.6253 77.3029 39.5213C77.3029 38.4173 77.5589 37.5733 78.0709 36.9893C78.5829 36.4053 79.3189 36.1133 80.2789 36.1133C81.2389 36.1133 81.9709 36.4053 82.4749 36.9893C82.9869 37.5733 83.2429 38.4173 83.2429 39.5213C83.2429 40.6333 82.9869 41.4853 82.4749 42.0773C81.9629 42.6613 81.2309 42.9533 80.2789 42.9533ZM80.2789 41.9573C80.7989 41.9573 81.1749 41.7653 81.4069 41.3813C81.6469 40.9893 81.7669 40.3693 81.7669 39.5213C81.7669 38.6813 81.6469 38.0693 81.4069 37.6853C81.1749 37.3013 80.7989 37.1093 80.2789 37.1093C79.7589 37.1093 79.3789 37.3013 79.1389 37.6853C78.9069 38.0613 78.7909 38.6733 78.7909 39.5213C78.7909 40.3773 78.9069 40.9973 79.1389 41.3813C79.3789 41.7653 79.7589 41.9573 80.2789 41.9573ZM89.0575 42.9533C87.8255 42.9533 86.8775 42.5813 86.2135 41.8373C85.5495 41.0853 85.2175 40.0213 85.2175 38.6453C85.2175 37.2773 85.5535 36.2133 86.2255 35.4533C86.8975 34.6933 87.8415 34.3133 89.0575 34.3133C89.5455 34.3133 90.0095 34.3973 90.4495 34.5653C90.8975 34.7333 91.2615 34.9613 91.5415 35.2493C91.5015 35.4733 91.4135 35.6733 91.2775 35.8493C91.1415 36.0253 91.0095 36.1133 90.8815 36.1133C90.7695 36.1133 90.6655 36.0773 90.5695 36.0053C90.3135 35.8133 90.0655 35.6733 89.8255 35.5853C89.5855 35.4973 89.3215 35.4533 89.0335 35.4533C88.2895 35.4533 87.7255 35.7213 87.3415 36.2573C86.9655 36.7933 86.7775 37.5893 86.7775 38.6453C86.7775 39.6933 86.9655 40.4853 87.3415 41.0213C87.7255 41.5493 88.2895 41.8133 89.0335 41.8133C89.7775 41.8133 90.4135 41.5493 90.9415 41.0213C91.1015 41.0853 91.2295 41.1813 91.3255 41.3093C91.4215 41.4373 91.4695 41.5773 91.4695 41.7293C91.4695 41.9453 91.3575 42.1493 91.1335 42.3413C90.9095 42.5253 90.6135 42.6733 90.2455 42.7853C89.8775 42.8973 89.4815 42.9533 89.0575 42.9533ZM96.4021 42.9533C95.4421 42.9533 94.7061 42.6573 94.1941 42.0653C93.6821 41.4733 93.4261 40.6253 93.4261 39.5213C93.4261 38.4173 93.6821 37.5733 94.1941 36.9893C94.7061 36.4053 95.4421 36.1133 96.4021 36.1133C97.3621 36.1133 98.0941 36.4053 98.5981 36.9893C99.1101 37.5733 99.3661 38.4173 99.3661 39.5213C99.3661 40.6333 99.1101 41.4853 98.5981 42.0773C98.0861 42.6613 97.3541 42.9533 96.4021 42.9533ZM96.4021 41.9573C96.9221 41.9573 97.2981 41.7653 97.5301 41.3813C97.7701 40.9893 97.8901 40.3693 97.8901 39.5213C97.8901 38.6813 97.7701 38.0693 97.5301 37.6853C97.2981 37.3013 96.9221 37.1093 96.4021 37.1093C95.8821 37.1093 95.5021 37.3013 95.2621 37.6853C95.0301 38.0613 94.9141 38.6733 94.9141 39.5213C94.9141 40.3773 95.0301 40.9973 95.2621 41.3813C95.5021 41.7653 95.8821 41.9573 96.4021 41.9573ZM108.733 36.1133C109.349 36.1133 109.833 36.3013 110.185 36.6773C110.545 37.0453 110.725 37.5453 110.725 38.1773V42.8333H109.261V38.2133C109.261 37.7973 109.189 37.5053 109.045 37.3373C108.909 37.1693 108.669 37.0853 108.325 37.0853C107.797 37.0853 107.329 37.3213 106.921 37.7933C106.929 37.8333 106.933 37.8973 106.933 37.9853V42.8333H105.469V38.0933C105.469 37.7413 105.401 37.4853 105.265 37.3253C105.129 37.1653 104.917 37.0853 104.629 37.0853C104.365 37.0853 104.109 37.1533 103.861 37.2893C103.621 37.4173 103.373 37.6253 103.117 37.9133V42.8333H101.665V38.5613C101.665 37.4013 101.617 36.6973 101.521 36.4493C101.657 36.3693 101.821 36.3053 102.013 36.2573C102.205 36.2093 102.377 36.1853 102.529 36.1853C102.713 36.1853 102.853 36.2493 102.949 36.3773C103.045 36.5053 103.097 36.7053 103.105 36.9773C103.409 36.6733 103.717 36.4533 104.029 36.3173C104.349 36.1813 104.701 36.1133 105.085 36.1133C105.461 36.1133 105.789 36.1933 106.069 36.3533C106.349 36.5053 106.565 36.7253 106.717 37.0133C107.213 36.4133 107.885 36.1133 108.733 36.1133ZM120.638 36.1133C121.254 36.1133 121.738 36.3013 122.09 36.6773C122.45 37.0453 122.63 37.5453 122.63 38.1773V42.8333H121.166V38.2133C121.166 37.7973 121.094 37.5053 120.95 37.3373C120.814 37.1693 120.574 37.0853 120.23 37.0853C119.702 37.0853 119.234 37.3213 118.826 37.7933C118.834 37.8333 118.838 37.8973 118.838 37.9853V42.8333H117.374V38.0933C117.374 37.7413 117.306 37.4853 117.17 37.3253C117.034 37.1653 116.822 37.0853 116.534 37.0853C116.27 37.0853 116.014 37.1533 115.766 37.2893C115.526 37.4173 115.278 37.6253 115.022 37.9133V42.8333H113.57V38.5613C113.57 37.4013 113.522 36.6973 113.426 36.4493C113.562 36.3693 113.726 36.3053 113.918 36.2573C114.11 36.2093 114.282 36.1853 114.434 36.1853C114.618 36.1853 114.758 36.2493 114.854 36.3773C114.95 36.5053 115.002 36.7053 115.01 36.9773C115.314 36.6733 115.622 36.4533 115.934 36.3173C116.254 36.1813 116.606 36.1133 116.99 36.1133C117.366 36.1133 117.694 36.1933 117.974 36.3533C118.254 36.5053 118.47 36.7253 118.622 37.0133C119.118 36.4133 119.79 36.1133 120.638 36.1133ZM131.007 39.0893C131.007 39.2253 130.991 39.4533 130.959 39.7733H126.543C126.583 40.4613 126.743 40.9933 127.023 41.3693C127.303 41.7453 127.683 41.9333 128.163 41.9333C128.491 41.9333 128.759 41.8693 128.967 41.7413C129.183 41.6053 129.427 41.3453 129.699 40.9613C129.747 40.8893 129.831 40.8533 129.951 40.8533C130.175 40.8533 130.483 40.9933 130.875 41.2733C130.651 41.8173 130.303 42.2333 129.831 42.5213C129.367 42.8093 128.811 42.9533 128.163 42.9533C127.195 42.9533 126.431 42.6493 125.871 42.0413C125.319 41.4253 125.043 40.5853 125.043 39.5213C125.043 38.4653 125.323 37.6333 125.883 37.0253C126.443 36.4173 127.211 36.1133 128.187 36.1133C129.083 36.1133 129.775 36.3733 130.263 36.8933C130.759 37.4133 131.007 38.1453 131.007 39.0893ZM129.531 38.8853C129.531 37.6933 129.071 37.0973 128.151 37.0973C127.695 37.0973 127.331 37.2493 127.059 37.5533C126.795 37.8493 126.631 38.2933 126.567 38.8853H129.531ZM136.278 36.1493C136.63 36.1493 136.886 36.2213 137.046 36.3653C137.214 36.5093 137.298 36.7293 137.298 37.0253C137.298 37.1373 137.282 37.2493 137.25 37.3613C137.218 37.4653 137.174 37.5493 137.118 37.6133C137.03 37.5573 136.922 37.5173 136.794 37.4933C136.674 37.4693 136.51 37.4573 136.302 37.4573C135.782 37.4573 135.382 37.6373 135.102 37.9973C134.822 38.3493 134.682 38.8573 134.682 39.5213V42.8333H133.23V36.2333H134.682V37.2173C134.85 36.8813 135.074 36.6213 135.354 36.4373C135.634 36.2453 135.942 36.1493 136.278 36.1493ZM142.083 42.9533C141.019 42.9533 140.211 42.6613 139.659 42.0773C139.115 41.4853 138.843 40.6253 138.843 39.4973C138.843 38.4493 139.123 37.6253 139.683 37.0253C140.243 36.4173 141.011 36.1133 141.987 36.1133C142.763 36.1133 143.395 36.3053 143.883 36.6893C144.379 37.0653 144.671 37.5853 144.759 38.2493C144.391 38.4653 144.071 38.5733 143.799 38.5733C143.687 38.5733 143.595 38.5413 143.523 38.4773C143.459 38.4053 143.399 38.2853 143.343 38.1173C143.239 37.7733 143.075 37.5213 142.851 37.3613C142.635 37.1933 142.347 37.1093 141.987 37.1093C141.467 37.1093 141.059 37.3213 140.763 37.7453C140.475 38.1613 140.331 38.7453 140.331 39.4973C140.331 40.2973 140.479 40.9053 140.775 41.3213C141.079 41.7293 141.515 41.9333 142.083 41.9333C142.499 41.9333 142.835 41.8133 143.091 41.5733C143.355 41.3253 143.551 40.9413 143.679 40.4213C144.007 40.4213 144.247 40.4933 144.399 40.6373C144.559 40.7733 144.639 40.9813 144.639 41.2613C144.639 41.5573 144.519 41.8373 144.279 42.1013C144.047 42.3573 143.735 42.5653 143.343 42.7253C142.951 42.8773 142.531 42.9533 142.083 42.9533ZM152.708 39.0893C152.708 39.2253 152.692 39.4533 152.66 39.7733H148.244C148.284 40.4613 148.444 40.9933 148.724 41.3693C149.004 41.7453 149.384 41.9333 149.864 41.9333C150.192 41.9333 150.46 41.8693 150.668 41.7413C150.884 41.6053 151.128 41.3453 151.4 40.9613C151.448 40.8893 151.532 40.8533 151.652 40.8533C151.876 40.8533 152.184 40.9933 152.576 41.2733C152.352 41.8173 152.004 42.2333 151.532 42.5213C151.068 42.8093 150.512 42.9533 149.864 42.9533C148.896 42.9533 148.132 42.6493 147.572 42.0413C147.02 41.4253 146.744 40.5853 146.744 39.5213C146.744 38.4653 147.024 37.6333 147.584 37.0253C148.144 36.4173 148.912 36.1133 149.888 36.1133C150.784 36.1133 151.476 36.3733 151.964 36.8933C152.46 37.4133 152.708 38.1453 152.708 39.0893ZM151.232 38.8853C151.232 37.6933 150.772 37.0973 149.852 37.0973C149.396 37.0973 149.032 37.2493 148.76 37.5533C148.496 37.8493 148.332 38.2933 148.268 38.8853H151.232ZM164.348 34.4333C164.38 34.6093 164.396 34.7573 164.396 34.8773C164.396 35.1093 164.352 35.2813 164.264 35.3933C164.184 35.4973 164.056 35.5493 163.88 35.5493H162.08V42.8333H160.568V35.5493H158.3V34.4333H164.348ZM170.05 36.1133C170.658 36.1133 171.142 36.2973 171.502 36.6653C171.862 37.0333 172.042 37.5333 172.042 38.1653V42.8333H170.578V38.3213C170.578 37.9373 170.494 37.6533 170.326 37.4693C170.166 37.2773 169.914 37.1813 169.57 37.1813C169.274 37.1813 168.966 37.2453 168.646 37.3733C168.334 37.5013 168.026 37.6893 167.722 37.9373V42.8333H166.258V33.3413H167.722V37.0013C168.034 36.7213 168.394 36.5053 168.802 36.3533C169.218 36.1933 169.634 36.1133 170.05 36.1133ZM180.489 39.0893C180.489 39.2253 180.473 39.4533 180.441 39.7733H176.025C176.065 40.4613 176.225 40.9933 176.505 41.3693C176.785 41.7453 177.165 41.9333 177.645 41.9333C177.973 41.9333 178.241 41.8693 178.449 41.7413C178.665 41.6053 178.909 41.3453 179.181 40.9613C179.229 40.8893 179.313 40.8533 179.433 40.8533C179.657 40.8533 179.965 40.9933 180.357 41.2733C180.133 41.8173 179.785 42.2333 179.313 42.5213C178.849 42.8093 178.293 42.9533 177.645 42.9533C176.677 42.9533 175.913 42.6493 175.353 42.0413C174.801 41.4253 174.525 40.5853 174.525 39.5213C174.525 38.4653 174.805 37.6333 175.365 37.0253C175.925 36.4173 176.693 36.1133 177.669 36.1133C178.565 36.1133 179.257 36.3733 179.745 36.8933C180.241 37.4133 180.489 38.1453 180.489 39.0893ZM179.013 38.8853C179.013 37.6933 178.553 37.0973 177.633 37.0973C177.177 37.0973 176.813 37.2493 176.541 37.5533C176.277 37.8493 176.113 38.2933 176.049 38.8853H179.013ZM189.864 36.1133C190.48 36.1133 190.964 36.3013 191.316 36.6773C191.676 37.0453 191.856 37.5453 191.856 38.1773V42.8333H190.392V38.2133C190.392 37.7973 190.32 37.5053 190.176 37.3373C190.04 37.1693 189.8 37.0853 189.456 37.0853C188.928 37.0853 188.46 37.3213 188.052 37.7933C188.06 37.8333 188.064 37.8973 188.064 37.9853V42.8333H186.6V38.0933C186.6 37.7413 186.532 37.4853 186.396 37.3253C186.26 37.1653 186.048 37.0853 185.76 37.0853C185.496 37.0853 185.24 37.1533 184.992 37.2893C184.752 37.4173 184.504 37.6253 184.248 37.9133V42.8333H182.796V38.5613C182.796 37.4013 182.748 36.6973 182.652 36.4493C182.788 36.3693 182.952 36.3053 183.144 36.2573C183.336 36.2093 183.508 36.1853 183.66 36.1853C183.844 36.1853 183.984 36.2493 184.08 36.3773C184.176 36.5053 184.228 36.7053 184.236 36.9773C184.54 36.6733 184.848 36.4533 185.16 36.3173C185.48 36.1813 185.832 36.1133 186.216 36.1133C186.592 36.1133 186.92 36.1933 187.2 36.3533C187.48 36.5053 187.696 36.7253 187.848 37.0133C188.344 36.4133 189.016 36.1133 189.864 36.1133ZM200.233 39.0893C200.233 39.2253 200.217 39.4533 200.185 39.7733H195.769C195.809 40.4613 195.969 40.9933 196.249 41.3693C196.529 41.7453 196.909 41.9333 197.389 41.9333C197.717 41.9333 197.985 41.8693 198.193 41.7413C198.409 41.6053 198.653 41.3453 198.925 40.9613C198.973 40.8893 199.057 40.8533 199.177 40.8533C199.401 40.8533 199.709 40.9933 200.101 41.2733C199.877 41.8173 199.529 42.2333 199.057 42.5213C198.593 42.8093 198.037 42.9533 197.389 42.9533C196.421 42.9533 195.657 42.6493 195.097 42.0413C194.545 41.4253 194.269 40.5853 194.269 39.5213C194.269 38.4653 194.549 37.6333 195.109 37.0253C195.669 36.4173 196.437 36.1133 197.413 36.1133C198.309 36.1133 199.001 36.3733 199.489 36.8933C199.985 37.4133 200.233 38.1453 200.233 39.0893ZM198.757 38.8853C198.757 37.6933 198.297 37.0973 197.377 37.0973C196.921 37.0973 196.557 37.2493 196.285 37.5533C196.021 37.8493 195.857 38.2933 195.793 38.8853H198.757Z" fill="white"/>
<defs>
<linearGradient id="paint0_linear_52_4896" x1="9.5" y1="9" x2="41.5" y2="50" gradientUnits="userSpaceOnUse">
<stop stop-color="#CC060D"/>
<stop offset="1" stop-color="#FF767B"/>
</linearGradient>
<clipPath id="clip0_52_4896">
<rect width="50" height="50" fill="white"/>
</clipPath>
</defs>
</svg>
