<svg width="118" height="118" viewBox="0 0 118 118" fill="none" xmlns="http://www.w3.org/2000/svg">
<g filter="url(#filter0_d_52_3185)">
<rect x="24" y="9" width="70" height="70" rx="15" fill="url(#paint0_linear_52_3185)"/>
<rect x="25.5" y="10.5" width="67" height="67" rx="13.5" stroke="white" stroke-width="3"/>
<path d="M69.3303 48.2036L69.7241 47.2192L68.7141 47.5415L64.5176 48.8808L64.5006 48.8863L64.484 48.8929C64.3285 48.9551 64.1273 48.8651 64.0914 48.6499L64.0825 48.5966L64.0625 48.5464C64.0003 48.391 64.0903 48.1898 64.3054 48.1539L64.3373 48.1486L64.3682 48.1392L70.2611 46.3535L70.2817 46.3473L70.3018 46.3392C70.3796 46.3081 70.4761 46.3127 70.5621 46.3557C70.6486 46.3989 70.6877 46.461 70.6972 46.5088L70.7031 46.5382L70.7125 46.5668L72.7661 52.8168L72.771 52.8318L72.7768 52.8464C72.84 53.0043 72.7431 53.2678 72.5197 53.3572C72.3647 53.4192 72.1079 53.327 72.014 53.1122L70.7701 49.2916L70.388 48.1181L69.8455 49.2267C67.8733 53.2568 63.6694 56 59.0447 56C55.8779 56 52.8789 54.7164 50.6482 52.4857C50.4863 52.3239 50.4863 52.1047 50.6482 51.9428C50.8101 51.781 51.0292 51.781 51.1911 51.9428C53.3377 54.0894 56.0538 55.2143 59.0447 55.2143C63.6292 55.2143 67.6491 52.4065 69.3303 48.2036ZM47.2976 41.468L47.2932 41.4504L47.2875 41.4332L45.234 35.1832L45.229 35.1682L45.2232 35.1536C45.1921 35.0758 45.1966 34.9793 45.2396 34.8932C45.2829 34.8068 45.3449 34.7677 45.3927 34.7581L45.4377 34.7491L45.4803 34.7321C45.6353 34.6701 45.8921 34.7623 45.986 34.9771L47.2299 38.7976L47.6264 40.0153L48.1599 38.8512C50.0432 34.7422 54.2413 32 58.8661 32C62.0329 32 65.0319 33.2836 67.2625 35.5143C67.4244 35.6761 67.4244 35.8953 67.2625 36.0572C67.1017 36.218 66.8844 36.219 66.7228 36.0603C64.6583 33.9047 61.8481 32.7857 58.8661 32.7857C54.2816 32.7857 50.2616 35.5935 48.5804 39.7964L48.1897 40.7732L49.1938 40.4594L53.4795 39.1201L53.498 39.1143L53.5161 39.1071C53.6715 39.0449 53.8727 39.1349 53.9086 39.3501L53.9175 39.4034L53.9376 39.4536C53.9997 39.609 53.9097 39.8102 53.6946 39.8461L53.6627 39.8514L53.6318 39.8608L47.7389 41.6465L47.619 41.6828L47.5891 41.7127C47.4624 41.6985 47.3276 41.5881 47.2976 41.468Z" fill="white" stroke="white"/>
</g>
<defs>
<filter id="filter0_d_52_3185" x="0" y="0" width="118" height="118" filterUnits="userSpaceOnUse" color-interpolation-filters="sRGB">
<feFlood flood-opacity="0" result="BackgroundImageFix"/>
<feColorMatrix in="SourceAlpha" type="matrix" values="0 0 0 0 0 0 0 0 0 0 0 0 0 0 0 0 0 0 127 0" result="hardAlpha"/>
<feOffset dy="15"/>
<feGaussianBlur stdDeviation="12"/>
<feComposite in2="hardAlpha" operator="out"/>
<feColorMatrix type="matrix" values="0 0 0 0 0.751306 0 0 0 0 0.764795 0 0 0 0 0.690606 0 0 0 1 0"/>
<feBlend mode="normal" in2="BackgroundImageFix" result="effect1_dropShadow_52_3185"/>
<feBlend mode="normal" in="SourceGraphic" in2="effect1_dropShadow_52_3185" result="shape"/>
</filter>
<linearGradient id="paint0_linear_52_3185" x1="41" y1="15" x2="81" y2="79" gradientUnits="userSpaceOnUse">
<stop stop-color="#6BD849"/>
<stop offset="1" stop-color="#0BAB53"/>
</linearGradient>
</defs>
</svg>
