<svg width="132" height="133" viewBox="0 0 132 133" fill="none" xmlns="http://www.w3.org/2000/svg">
<path d="M66.3286 83.8649C75.919 83.8649 83.6935 76.0904 83.6935 66.5C83.6935 56.9096 75.919 49.1351 66.3286 49.1351C56.7382 49.1351 48.9637 56.9096 48.9637 66.5C48.9637 76.0904 56.7382 83.8649 66.3286 83.8649Z" stroke="#D8DED4" stroke-width="4" stroke-linecap="round" stroke-linejoin="round"/>
<path d="M109.162 83.8649C108.392 85.6108 108.162 87.5474 108.502 89.4251C108.843 91.3028 109.738 93.0355 111.072 94.3996L111.42 94.7469C112.496 95.8221 113.35 97.0989 113.932 98.5042C114.515 99.9096 114.815 101.416 114.815 102.937C114.815 104.459 114.515 105.965 113.932 107.371C113.35 108.776 112.496 110.053 111.42 111.128C110.344 112.204 109.068 113.058 107.662 113.641C106.257 114.223 104.75 114.523 103.229 114.523C101.708 114.523 100.201 114.223 98.7959 113.641C97.3905 113.058 96.1138 112.204 95.0386 111.128L94.6913 110.781C93.3271 109.446 91.5945 108.551 89.7168 108.211C87.8391 107.87 85.9024 108.1 84.1566 108.87C82.4446 109.604 80.9845 110.822 79.9561 112.375C78.9276 113.928 78.3757 115.748 78.3683 117.611V118.595C78.3683 121.665 77.1486 124.61 74.9776 126.781C72.8065 128.952 69.862 130.171 66.7917 130.171C63.7214 130.171 60.7768 128.952 58.6058 126.781C56.4347 124.61 55.2151 121.665 55.2151 118.595V118.074C55.1702 116.158 54.5501 114.3 53.4352 112.741C52.3203 111.182 50.7623 109.995 48.9637 109.333C47.2178 108.563 45.2812 108.333 43.4035 108.674C41.5258 109.014 39.7932 109.909 38.429 111.244L38.0817 111.591C37.0065 112.667 35.7297 113.521 34.3244 114.104C32.919 114.686 31.4126 114.986 29.8912 114.986C28.3699 114.986 26.8634 114.686 25.4581 114.104C24.0527 113.521 22.7759 112.667 21.7008 111.591C20.6244 110.516 19.7705 109.239 19.1879 107.834C18.6054 106.428 18.3055 104.922 18.3055 103.4C18.3055 101.879 18.6054 100.373 19.1879 98.9673C19.7705 97.5619 20.6244 96.2852 21.7008 95.21L22.0481 94.8627C23.3825 93.4985 24.2776 91.7659 24.6181 89.8882C24.9586 88.0105 24.7287 86.0738 23.9582 84.328C23.2245 82.616 22.0061 81.1559 20.4532 80.1275C18.9002 79.099 17.0805 78.5471 15.2179 78.5397H14.2338C11.1635 78.5397 8.21898 77.32 6.04794 75.149C3.8769 72.9779 2.65723 70.0334 2.65723 66.9631C2.65723 63.8928 3.8769 60.9482 6.04794 58.7772C8.21898 56.6061 11.1635 55.3864 14.2338 55.3864H14.7548C16.6707 55.3416 18.5288 54.7215 20.0876 53.6066C21.6463 52.4917 22.8336 50.9337 23.4951 49.1351C24.2656 47.3892 24.4955 45.4526 24.155 43.5749C23.8146 41.6972 22.9194 39.9645 21.585 38.6004L21.2377 38.2531C20.1613 37.1779 19.3075 35.9011 18.7249 34.4958C18.1423 33.0904 17.8424 31.5839 17.8424 30.0626C17.8424 28.5413 18.1423 27.0348 18.7249 25.6294C19.3075 24.2241 20.1613 22.9473 21.2377 21.8721C22.3129 20.7958 23.5896 19.9419 24.995 19.3593C26.4004 18.7767 27.9068 18.4769 29.4281 18.4769C30.9495 18.4769 32.4559 18.7767 33.8613 19.3593C35.2667 19.9419 36.5434 20.7958 37.6186 21.8721L37.9659 22.2194C39.3301 23.5539 41.0627 24.449 42.9404 24.7895C44.8181 25.1299 46.7548 24.9001 48.5006 24.1296H48.9637C50.6757 23.3958 52.1358 22.1775 53.1642 20.6246C54.1927 19.0716 54.7446 17.2518 54.752 15.3892V14.4052C54.752 11.3349 55.9717 8.39036 58.1427 6.21933C60.3137 4.04829 63.2583 2.82861 66.3286 2.82861C69.3989 2.82861 72.3435 4.04829 74.5145 6.21933C76.6855 8.39036 77.9052 11.3349 77.9052 14.4052V14.9262C77.9127 16.7888 78.4646 18.6086 79.493 20.1615C80.5214 21.7144 81.9815 22.9328 83.6935 23.6665C85.4394 24.437 87.376 24.6669 89.2537 24.3264C91.1314 23.986 92.8641 23.0908 94.2283 21.7564L94.5755 21.4091C95.6507 20.3327 96.9275 19.4788 98.3329 18.8963C99.7382 18.3137 101.245 18.0138 102.766 18.0138C104.287 18.0138 105.794 18.3137 107.199 18.8963C108.605 19.4788 109.881 20.3327 110.956 21.4091C112.033 22.4842 112.887 23.761 113.469 25.1664C114.052 26.5718 114.352 28.0782 114.352 29.5995C114.352 31.1209 114.052 32.6273 113.469 34.0327C112.887 35.4381 112.033 36.7148 110.956 37.79L110.609 38.1373C109.275 39.5015 108.38 41.2341 108.039 43.1118C107.699 44.9895 107.929 46.9262 108.699 48.672V49.1351C109.433 50.8471 110.651 52.3072 112.204 53.3356C113.757 54.364 115.577 54.916 117.439 54.9234H118.423C121.494 54.9234 124.438 56.1431 126.609 58.3141C128.78 60.4851 130 63.4297 130 66.5C130 69.5703 128.78 72.5149 126.609 74.6859C124.438 76.8569 121.494 78.0766 118.423 78.0766H117.902C116.04 78.084 114.22 78.6359 112.667 79.6644C111.114 80.6928 109.896 82.1529 109.162 83.8649Z" stroke="#D8DED4" stroke-width="4" stroke-linecap="round" stroke-linejoin="round"/>
</svg>
