<svg width="195" height="51" viewBox="0 0 195 51" fill="none" xmlns="http://www.w3.org/2000/svg">
<path d="M52.0299 49.5036L49.7485 40.5821H51.1123L52.7818 47.1266L54.4451 40.5821H55.6495L57.3191 47.1266L58.9887 40.5821H60.3524L58.0838 49.5036H56.5607L55.0505 43.5963L53.5402 49.5036H52.0299Z" fill="black"/>
<path d="M63.9602 49.6693C63.374 49.6693 62.8387 49.5185 62.3544 49.2168C61.8743 48.9152 61.4898 48.5116 61.2009 48.006C60.9163 47.4962 60.774 46.9333 60.774 46.3173C60.774 45.85 60.8568 45.4146 61.0225 45.011C61.1882 44.6031 61.4155 44.2463 61.7044 43.9404C61.9975 43.6303 62.3374 43.3881 62.724 43.2139C63.1106 43.0397 63.5226 42.9526 63.9602 42.9526C64.5465 42.9526 65.0797 43.1035 65.5597 43.4051C66.044 43.7067 66.4285 44.1124 66.7131 44.6222C67.002 45.132 67.1465 45.6971 67.1465 46.3173C67.1465 46.7804 67.0636 47.2137 66.8979 47.6173C66.7323 48.0209 66.5029 48.3778 66.2097 48.6879C65.9208 48.9938 65.5831 49.2338 65.1965 49.408C64.8141 49.5822 64.402 49.6693 63.9602 49.6693ZM63.9602 48.3438C64.3128 48.3438 64.6293 48.2503 64.9097 48.0634C65.1901 47.8765 65.411 47.6301 65.5725 47.3242C65.7382 47.0141 65.821 46.6784 65.821 46.3173C65.821 45.9477 65.736 45.6079 65.5661 45.2977C65.4004 44.9876 65.1774 44.7412 64.897 44.5585C64.6166 44.3716 64.3043 44.2781 63.9602 44.2781C63.6119 44.2781 63.2954 44.3716 63.0107 44.5585C62.7303 44.7454 62.5073 44.994 62.3416 45.3041C62.1802 45.6142 62.0994 45.952 62.0994 46.3173C62.0994 46.6954 62.1844 47.0374 62.3544 47.3433C62.5243 47.6492 62.7494 47.8935 63.0298 48.0761C63.3145 48.2546 63.6246 48.3438 63.9602 48.3438Z" fill="black"/>
<path d="M71.4773 49.6693C70.891 49.6693 70.3557 49.5185 69.8714 49.2168C69.3914 48.9152 69.0069 48.5116 68.718 48.006C68.4334 47.4962 68.291 46.9333 68.291 46.3173C68.291 45.85 68.3739 45.4146 68.5396 45.011C68.7052 44.6031 68.9325 44.2463 69.2214 43.9404C69.5146 43.6303 69.8544 43.3881 70.241 43.2139C70.6276 43.0397 71.0397 42.9526 71.4773 42.9526C72.0636 42.9526 72.5967 43.1035 73.0768 43.4051C73.5611 43.7067 73.9456 44.1124 74.2302 44.6222C74.5191 45.132 74.6635 45.6971 74.6635 46.3173C74.6635 46.7804 74.5807 47.2137 74.415 47.6173C74.2493 48.0209 74.0199 48.3778 73.7268 48.6879C73.4379 48.9938 73.1002 49.2338 72.7136 49.408C72.3312 49.5822 71.9191 49.6693 71.4773 49.6693ZM71.4773 48.3438C71.8299 48.3438 72.1464 48.2503 72.4268 48.0634C72.7072 47.8765 72.9281 47.6301 73.0895 47.3242C73.2552 47.0141 73.3381 46.6784 73.3381 46.3173C73.3381 45.9477 73.2531 45.6079 73.0832 45.2977C72.9175 44.9876 72.6944 44.7412 72.4141 44.5585C72.1337 44.3716 71.8214 44.2781 71.4773 44.2781C71.1289 44.2781 70.8124 44.3716 70.5278 44.5585C70.2474 44.7454 70.0244 44.994 69.8587 45.3041C69.6972 45.6142 69.6165 45.952 69.6165 46.3173C69.6165 46.6954 69.7015 47.0374 69.8714 47.3433C70.0414 47.6492 70.2665 47.8935 70.5469 48.0761C70.8315 48.2546 71.1417 48.3438 71.4773 48.3438Z" fill="black"/>
<path d="M80.4443 49.6693C79.841 49.6693 79.2739 49.5503 78.7428 49.3124C78.2118 49.0703 77.7445 48.7389 77.3409 48.3183C76.9415 47.8935 76.6272 47.4007 76.3978 46.8399C76.1726 46.2791 76.06 45.6801 76.06 45.0428C76.06 44.4056 76.1726 43.8066 76.3978 43.2458C76.6272 42.685 76.9415 42.1943 77.3409 41.7737C77.7445 41.3489 78.2118 41.0175 78.7428 40.7796C79.2739 40.5375 79.841 40.4164 80.4443 40.4164C81.1665 40.4164 81.8314 40.5842 82.4389 40.9198C83.0464 41.2554 83.5498 41.7015 83.9492 42.258L82.7703 42.8889C82.4941 42.5406 82.1521 42.2623 81.7443 42.0541C81.3365 41.846 80.9031 41.7419 80.4443 41.7419C80.0195 41.7419 79.6222 41.829 79.2526 42.0031C78.883 42.1773 78.558 42.4152 78.2776 42.7169C77.9973 43.0185 77.7785 43.369 77.6213 43.7683C77.4641 44.1677 77.3855 44.5925 77.3855 45.0428C77.3855 45.4974 77.4641 45.9244 77.6213 46.3237C77.7785 46.7188 77.9973 47.0693 78.2776 47.3752C78.5623 47.6768 78.8894 47.9147 79.259 48.0889C79.6286 48.2588 80.0237 48.3438 80.4443 48.3438C80.9116 48.3438 81.3471 48.2397 81.7507 48.0315C82.1585 47.8191 82.4984 47.5387 82.7703 47.1904L83.9492 47.834C83.5498 48.3905 83.0464 48.8366 82.4389 49.1722C81.8314 49.5036 81.1665 49.6693 80.4443 49.6693Z" fill="black"/>
<path d="M88.1668 49.6693C87.5805 49.6693 87.0452 49.5185 86.5609 49.2168C86.0808 48.9152 85.6964 48.5116 85.4075 48.006C85.1229 47.4962 84.9805 46.9333 84.9805 46.3173C84.9805 45.85 85.0634 45.4146 85.2291 45.011C85.3947 44.6031 85.622 44.2463 85.9109 43.9404C86.2041 43.6303 86.5439 43.3881 86.9305 43.2139C87.3171 43.0397 87.7292 42.9526 88.1668 42.9526C88.7531 42.9526 89.2862 43.1035 89.7663 43.4051C90.2506 43.7067 90.6351 44.1124 90.9197 44.6222C91.2086 45.132 91.353 45.6971 91.353 46.3173C91.353 46.7804 91.2702 47.2137 91.1045 47.6173C90.9388 48.0209 90.7094 48.3778 90.4163 48.6879C90.1274 48.9938 89.7896 49.2338 89.4031 49.408C89.0207 49.5822 88.6086 49.6693 88.1668 49.6693ZM88.1668 48.3438C88.5194 48.3438 88.8359 48.2503 89.1163 48.0634C89.3967 47.8765 89.6176 47.6301 89.779 47.3242C89.9447 47.0141 90.0276 46.6784 90.0276 46.3173C90.0276 45.9477 89.9426 45.6079 89.7727 45.2977C89.607 44.9876 89.3839 44.7412 89.1035 44.5585C88.8232 44.3716 88.5109 44.2781 88.1668 44.2781C87.8184 44.2781 87.5019 44.3716 87.2173 44.5585C86.9369 44.7454 86.7139 44.994 86.5482 45.3041C86.3867 45.6142 86.306 45.952 86.306 46.3173C86.306 46.6954 86.391 47.0374 86.5609 47.3433C86.7308 47.6492 86.956 47.8935 87.2364 48.0761C87.521 48.2546 87.8312 48.3438 88.1668 48.3438Z" fill="black"/>
<path d="M92.8924 49.5036V43.1311H94.2179V43.8066C94.4388 43.5432 94.7086 43.335 95.0272 43.1821C95.3501 43.0291 95.6984 42.9526 96.0723 42.9526C96.5268 42.9526 96.9453 43.0631 97.3277 43.284C97.71 43.5007 98.0138 43.7896 98.2389 44.1507C98.4641 43.7896 98.7636 43.5007 99.1375 43.284C99.5156 43.0631 99.9319 42.9526 100.386 42.9526C100.858 42.9526 101.287 43.0674 101.674 43.2968C102.06 43.5262 102.368 43.8342 102.598 44.2208C102.827 44.6074 102.942 45.0365 102.942 45.508V49.5036H101.616V45.8458C101.616 45.5654 101.548 45.3084 101.412 45.0747C101.276 44.841 101.094 44.652 100.864 44.5075C100.635 44.3631 100.38 44.2909 100.1 44.2909C99.8193 44.2909 99.5644 44.3588 99.335 44.4948C99.1056 44.6307 98.9229 44.8155 98.787 45.0492C98.651 45.2829 98.583 45.5484 98.583 45.8458V49.5036H97.2576V45.8458C97.2576 45.5484 97.1896 45.2829 97.0536 45.0492C96.9177 44.8155 96.7329 44.6307 96.4992 44.4948C96.2698 44.3588 96.0149 44.2909 95.7345 44.2909C95.4584 44.2909 95.2035 44.3631 94.9698 44.5075C94.7404 44.652 94.5577 44.841 94.4218 45.0747C94.2859 45.3084 94.2179 45.5654 94.2179 45.8458V49.5036H92.8924Z" fill="black"/>
<path d="M104.728 49.5036V43.1311H106.054V43.8066C106.275 43.5432 106.544 43.335 106.863 43.1821C107.186 43.0291 107.534 42.9526 107.908 42.9526C108.363 42.9526 108.781 43.0631 109.164 43.284C109.546 43.5007 109.85 43.7896 110.075 44.1507C110.3 43.7896 110.6 43.5007 110.973 43.284C111.351 43.0631 111.768 42.9526 112.222 42.9526C112.694 42.9526 113.123 43.0674 113.51 43.2968C113.896 43.5262 114.204 43.8342 114.434 44.2208C114.663 44.6074 114.778 45.0365 114.778 45.508V49.5036H113.452V45.8458C113.452 45.5654 113.384 45.3084 113.248 45.0747C113.112 44.841 112.93 44.652 112.7 44.5075C112.471 44.3631 112.216 44.2909 111.936 44.2909C111.655 44.2909 111.4 44.3588 111.171 44.4948C110.942 44.6307 110.759 44.8155 110.623 45.0492C110.487 45.2829 110.419 45.5484 110.419 45.8458V49.5036H109.093V45.8458C109.093 45.5484 109.026 45.2829 108.89 45.0492C108.754 44.8155 108.569 44.6307 108.335 44.4948C108.106 44.3588 107.851 44.2909 107.57 44.2909C107.294 44.2909 107.039 44.3631 106.806 44.5075C106.576 44.652 106.394 44.841 106.258 45.0747C106.122 45.3084 106.054 45.5654 106.054 45.8458V49.5036H104.728Z" fill="black"/>
<path d="M119.244 49.6693C118.657 49.6693 118.122 49.5185 117.638 49.2168C117.158 48.9152 116.773 48.5116 116.484 48.006C116.2 47.4962 116.057 46.9333 116.057 46.3173C116.057 45.85 116.14 45.4146 116.306 45.011C116.472 44.6031 116.699 44.2463 116.988 43.9404C117.281 43.6303 117.621 43.3881 118.007 43.2139C118.394 43.0397 118.806 42.9526 119.244 42.9526C119.732 42.9526 120.18 43.0546 120.588 43.2585C120.996 43.4582 121.345 43.7365 121.633 44.0933C121.922 44.4459 122.135 44.8538 122.271 45.3168C122.407 45.7757 122.447 46.2642 122.392 46.7825H117.479C117.534 47.0757 117.64 47.3412 117.797 47.5791C117.959 47.8127 118.163 47.9975 118.409 48.1335C118.66 48.2694 118.938 48.3395 119.244 48.3438C119.567 48.3438 119.86 48.2631 120.123 48.1016C120.391 47.9402 120.61 47.7172 120.779 47.4325L122.124 47.7448C121.869 48.3098 121.485 48.7729 120.971 49.134C120.457 49.4908 119.881 49.6693 119.244 49.6693ZM117.434 45.7693H121.053C121.011 45.4634 120.903 45.1873 120.729 44.9409C120.559 44.6902 120.344 44.4927 120.085 44.3482C119.83 44.1995 119.55 44.1252 119.244 44.1252C118.942 44.1252 118.662 44.1974 118.403 44.3419C118.148 44.4863 117.935 44.6838 117.765 44.9345C117.6 45.1809 117.489 45.4592 117.434 45.7693Z" fill="black"/>
<path d="M123.957 49.5036V43.1311H125.282V43.8066C125.503 43.5432 125.775 43.335 126.098 43.1821C126.421 43.0291 126.769 42.9526 127.143 42.9526C127.381 42.9526 127.617 42.9845 127.85 43.0482L127.322 44.3865C127.156 44.3227 126.99 44.2909 126.825 44.2909C126.544 44.2909 126.287 44.361 126.053 44.5012C125.82 44.6371 125.633 44.8219 125.493 45.0556C125.352 45.2892 125.282 45.5484 125.282 45.833V49.5036H123.957Z" fill="black"/>
<path d="M132.959 47.6938L134.145 48.3374C133.856 48.741 133.488 49.0639 133.042 49.306C132.6 49.5482 132.12 49.6693 131.602 49.6693C131.016 49.6693 130.48 49.5185 129.996 49.2168C129.516 48.9152 129.131 48.5116 128.843 48.006C128.558 47.4962 128.416 46.9333 128.416 46.3173C128.416 45.85 128.498 45.4146 128.664 45.011C128.83 44.6031 129.057 44.2463 129.346 43.9404C129.639 43.6303 129.979 43.3881 130.366 43.2139C130.752 43.0397 131.164 42.9526 131.602 42.9526C132.12 42.9526 132.6 43.0737 133.042 43.3159C133.488 43.558 133.856 43.883 134.145 44.2909L132.959 44.9345C132.781 44.7221 132.573 44.5606 132.335 44.4502C132.097 44.3355 131.853 44.2781 131.602 44.2781C131.254 44.2781 130.937 44.3737 130.652 44.5649C130.372 44.7518 130.149 45.0003 129.983 45.3105C129.822 45.6164 129.741 45.952 129.741 46.3173C129.741 46.6784 129.824 47.0141 129.99 47.3242C130.155 47.6301 130.378 47.8765 130.659 48.0634C130.943 48.2503 131.258 48.3438 131.602 48.3438C131.865 48.3438 132.116 48.2843 132.354 48.1654C132.592 48.0464 132.794 47.8892 132.959 47.6938Z" fill="black"/>
<path d="M138.459 49.6693C137.873 49.6693 137.338 49.5185 136.853 49.2168C136.373 48.9152 135.989 48.5116 135.7 48.006C135.415 47.4962 135.273 46.9333 135.273 46.3173C135.273 45.85 135.356 45.4146 135.522 45.011C135.687 44.6031 135.915 44.2463 136.203 43.9404C136.497 43.6303 136.836 43.3881 137.223 43.2139C137.61 43.0397 138.022 42.9526 138.459 42.9526C138.948 42.9526 139.396 43.0546 139.804 43.2585C140.212 43.4582 140.56 43.7365 140.849 44.0933C141.138 44.4459 141.35 44.8538 141.486 45.3168C141.622 45.7757 141.663 46.2642 141.607 46.7825H136.694C136.749 47.0757 136.856 47.3412 137.013 47.5791C137.174 47.8127 137.378 47.9975 137.625 48.1335C137.875 48.2694 138.153 48.3395 138.459 48.3438C138.782 48.3438 139.075 48.2631 139.339 48.1016C139.606 47.9402 139.825 47.7172 139.995 47.4325L141.34 47.7448C141.085 48.3098 140.7 48.7729 140.186 49.134C139.672 49.4908 139.097 49.6693 138.459 49.6693ZM136.65 45.7693H140.269C140.227 45.4634 140.118 45.1873 139.944 44.9409C139.774 44.6902 139.56 44.4927 139.3 44.3482C139.046 44.1995 138.765 44.1252 138.459 44.1252C138.158 44.1252 137.877 44.1974 137.618 44.3419C137.363 44.4863 137.151 44.6838 136.981 44.9345C136.815 45.1809 136.705 45.4592 136.65 45.7693Z" fill="black"/>
<path d="M150.036 49.6693C149.547 49.6693 149.078 49.5928 148.628 49.4399C148.177 49.2869 147.784 49.0681 147.449 48.7835C147.113 48.4946 146.873 48.1526 146.729 47.7575L147.971 47.2923C148.043 47.4962 148.182 47.6789 148.385 47.8404C148.594 47.9975 148.84 48.1208 149.125 48.21C149.414 48.2992 149.717 48.3438 150.036 48.3438C150.376 48.3438 150.694 48.2886 150.992 48.1781C151.293 48.0676 151.536 47.9147 151.718 47.7193C151.905 47.5239 151.999 47.2944 151.999 47.0311C151.999 46.7592 151.901 46.5361 151.706 46.3619C151.514 46.1878 151.268 46.0497 150.966 45.9477C150.669 45.8458 150.359 45.7693 150.036 45.7183C149.411 45.6164 148.851 45.4677 148.354 45.2722C147.861 45.0768 147.47 44.8028 147.181 44.4502C146.896 44.0976 146.754 43.6388 146.754 43.0737C146.754 42.5427 146.905 42.0796 147.207 41.6845C147.512 41.2894 147.914 40.9835 148.411 40.7669C148.912 40.546 149.454 40.4355 150.036 40.4355C150.516 40.4355 150.979 40.512 151.425 40.6649C151.875 40.8136 152.271 41.0324 152.61 41.3213C152.955 41.6059 153.201 41.9522 153.35 42.36L152.094 42.8125C152.022 42.6043 151.884 42.4237 151.68 42.2708C151.476 42.1136 151.23 41.9904 150.941 41.9012C150.656 41.812 150.355 41.7674 150.036 41.7674C149.696 41.7631 149.377 41.8183 149.08 41.933C148.787 42.0435 148.547 42.1964 148.36 42.3919C148.173 42.5873 148.08 42.8146 148.08 43.0737C148.08 43.3924 148.167 43.6345 148.341 43.8002C148.515 43.9659 148.749 44.0891 149.042 44.1698C149.339 44.2463 149.671 44.3164 150.036 44.3801C150.622 44.4736 151.164 44.6286 151.661 44.8453C152.162 45.0619 152.564 45.3508 152.865 45.7119C153.171 46.0688 153.324 46.5085 153.324 47.0311C153.324 47.5578 153.171 48.0209 152.865 48.4203C152.564 48.8154 152.162 49.1234 151.661 49.3443C151.164 49.5609 150.622 49.6693 150.036 49.6693Z" fill="black"/>
<path d="M157.911 49.6693C157.325 49.6693 156.79 49.5185 156.306 49.2168C155.825 48.9152 155.441 48.5116 155.152 48.006C154.867 47.4962 154.725 46.9333 154.725 46.3173C154.725 45.85 154.808 45.4146 154.974 45.011C155.139 44.6031 155.367 44.2463 155.656 43.9404C155.949 43.6303 156.289 43.3881 156.675 43.2139C157.062 43.0397 157.474 42.9526 157.911 42.9526C158.498 42.9526 159.031 43.1035 159.511 43.4051C159.995 43.7067 160.38 44.1124 160.664 44.6222C160.953 45.132 161.098 45.6971 161.098 46.3173C161.098 46.7804 161.015 47.2137 160.849 47.6173C160.683 48.0209 160.454 48.3778 160.161 48.6879C159.872 48.9938 159.534 49.2338 159.148 49.408C158.765 49.5822 158.353 49.6693 157.911 49.6693ZM157.911 48.3438C158.264 48.3438 158.58 48.2503 158.861 48.0634C159.141 47.8765 159.362 47.6301 159.524 47.3242C159.689 47.0141 159.772 46.6784 159.772 46.3173C159.772 45.9477 159.687 45.6079 159.517 45.2977C159.352 44.9876 159.129 44.7412 158.848 44.5585C158.568 44.3716 158.256 44.2781 157.911 44.2781C157.563 44.2781 157.247 44.3716 156.962 44.5585C156.681 44.7454 156.458 44.994 156.293 45.3041C156.131 45.6142 156.051 45.952 156.051 46.3173C156.051 46.6954 156.136 47.0374 156.306 47.3433C156.475 47.6492 156.701 47.8935 156.981 48.0761C157.266 48.2546 157.576 48.3438 157.911 48.3438Z" fill="black"/>
<path d="M162.55 49.5036V39.9448H163.875V49.5036H162.55Z" fill="black"/>
<path d="M165.655 47.1139V43.1311H166.98V46.7889C166.98 47.0735 167.051 47.3327 167.191 47.5663C167.331 47.8 167.518 47.9869 167.752 48.1271C167.985 48.2631 168.242 48.331 168.523 48.331C168.807 48.331 169.064 48.2631 169.294 48.1271C169.527 47.9869 169.712 47.8 169.848 47.5663C169.988 47.3327 170.058 47.0735 170.058 46.7889V43.1311H171.384L171.39 49.5036H170.065L170.058 48.8154C169.842 49.0788 169.572 49.2869 169.249 49.4399C168.926 49.5928 168.58 49.6693 168.21 49.6693C167.739 49.6693 167.31 49.5546 166.923 49.3252C166.537 49.0957 166.229 48.7877 165.999 48.4011C165.77 48.0145 165.655 47.5855 165.655 47.1139Z" fill="black"/>
<path d="M176.543 44.4566H175.204L175.198 49.5036H173.873L173.879 44.4566H172.866V43.1311H173.879L173.873 41.1301H175.198L175.204 43.1311H176.543V44.4566Z" fill="black"/>
<path d="M178.106 43.1311H179.432V49.5036H178.106V43.1311ZM178.782 42.2071C178.578 42.2071 178.408 42.1412 178.272 42.0095C178.136 41.8778 178.068 41.7121 178.068 41.5125C178.068 41.317 178.136 41.1535 178.272 41.0218C178.408 40.8858 178.576 40.8179 178.775 40.8179C178.971 40.8179 179.136 40.8858 179.272 41.0218C179.408 41.1535 179.476 41.317 179.476 41.5125C179.476 41.7121 179.408 41.8778 179.272 42.0095C179.141 42.1412 178.977 42.2071 178.782 42.2071Z" fill="black"/>
<path d="M184.158 49.6693C183.572 49.6693 183.037 49.5185 182.552 49.2168C182.072 48.9152 181.688 48.5116 181.399 48.006C181.114 47.4962 180.972 46.9333 180.972 46.3173C180.972 45.85 181.055 45.4146 181.22 45.011C181.386 44.6031 181.613 44.2463 181.902 43.9404C182.195 43.6303 182.535 43.3881 182.922 43.2139C183.308 43.0397 183.721 42.9526 184.158 42.9526C184.744 42.9526 185.278 43.1035 185.758 43.4051C186.242 43.7067 186.626 44.1124 186.911 44.6222C187.2 45.132 187.344 45.6971 187.344 46.3173C187.344 46.7804 187.262 47.2137 187.096 47.6173C186.93 48.0209 186.701 48.3778 186.408 48.6879C186.119 48.9938 185.781 49.2338 185.394 49.408C185.012 49.5822 184.6 49.6693 184.158 49.6693ZM184.158 48.3438C184.511 48.3438 184.827 48.2503 185.108 48.0634C185.388 47.8765 185.609 47.6301 185.77 47.3242C185.936 47.0141 186.019 46.6784 186.019 46.3173C186.019 45.9477 185.934 45.6079 185.764 45.2977C185.598 44.9876 185.375 44.7412 185.095 44.5585C184.815 44.3716 184.502 44.2781 184.158 44.2781C183.81 44.2781 183.493 44.3716 183.209 44.5585C182.928 44.7454 182.705 44.994 182.54 45.3041C182.378 45.6142 182.297 45.952 182.297 46.3173C182.297 46.6954 182.382 47.0374 182.552 47.3433C182.722 47.6492 182.947 47.8935 183.228 48.0761C183.512 48.2546 183.823 48.3438 184.158 48.3438Z" fill="black"/>
<path d="M194.619 45.508V49.5036H193.294V45.833C193.294 45.5484 193.223 45.2892 193.083 45.0556C192.947 44.8219 192.762 44.6371 192.529 44.5012C192.299 44.361 192.04 44.2909 191.751 44.2909C191.471 44.2909 191.214 44.361 190.98 44.5012C190.747 44.6371 190.56 44.8219 190.42 45.0556C190.279 45.2892 190.209 45.5484 190.209 45.833V49.5036H188.884V43.1311H190.209V43.8066C190.43 43.5432 190.702 43.335 191.025 43.1821C191.348 43.0291 191.696 42.9526 192.07 42.9526C192.542 42.9526 192.971 43.0674 193.357 43.2968C193.744 43.5262 194.05 43.8342 194.275 44.2208C194.504 44.6074 194.619 45.0365 194.619 45.508Z" fill="black"/>
<path d="M56.2749 32.1389C55.1612 32.1389 54.1259 31.935 53.169 31.5272C52.2278 31.1193 51.4122 30.5546 50.722 29.8331C50.0475 29.0958 49.5533 28.2409 49.2396 27.2684L51.8984 26.1154C52.322 27.1193 52.9337 27.9115 53.7337 28.4919C54.5337 29.0566 55.4357 29.3389 56.4396 29.3389C57.0043 29.3389 57.4905 29.2527 57.8984 29.0801C58.3219 28.8919 58.6435 28.6409 58.8631 28.3272C59.0984 28.0135 59.216 27.637 59.216 27.1978C59.216 26.6801 59.0592 26.2566 58.7454 25.9272C58.4474 25.5821 57.9925 25.3154 57.3807 25.1272L54.0161 24.0449C52.6514 23.6213 51.6239 22.986 50.9337 22.139C50.2435 21.2919 49.8984 20.2959 49.8984 19.1508C49.8984 18.1469 50.1416 17.2606 50.6279 16.492C51.1298 15.7233 51.82 15.1273 52.6984 14.7037C53.5925 14.2645 54.6121 14.0449 55.7572 14.0449C56.8082 14.0449 57.7729 14.2332 58.6513 14.6096C59.5298 14.9704 60.2827 15.4802 60.9101 16.139C61.5533 16.7822 62.0317 17.5429 62.3454 18.4214L59.7101 19.5978C59.365 18.7194 58.8474 18.0449 58.1572 17.5743C57.467 17.088 56.667 16.8449 55.7572 16.8449C55.2239 16.8449 54.7533 16.939 54.3455 17.1273C53.9376 17.2998 53.6161 17.5508 53.3808 17.8802C53.1612 18.1939 53.0514 18.5704 53.0514 19.0096C53.0514 19.4959 53.2082 19.9272 53.5219 20.3037C53.8357 20.6645 54.3141 20.9468 54.9572 21.1508L58.1807 22.1625C59.5768 22.6174 60.6199 23.2449 61.3101 24.0449C62.016 24.8448 62.3689 25.8331 62.3689 27.0095C62.3689 28.0135 62.1101 28.8997 61.5925 29.6683C61.0748 30.437 60.3611 31.0409 59.4513 31.4801C58.5415 31.9193 57.4827 32.1389 56.2749 32.1389Z" fill="black"/>
<path d="M64.9915 31.8566V14.0449H68.0739V21.5743L67.6503 21.1272C67.9484 20.3586 68.4347 19.7782 69.1092 19.3861C69.7994 18.9782 70.5993 18.7743 71.5091 18.7743C72.4503 18.7743 73.2817 18.9782 74.0032 19.3861C74.7405 19.7939 75.313 20.3664 75.7209 21.1037C76.1287 21.8253 76.3326 22.6645 76.3326 23.6213V31.8566H73.2503V24.3507C73.2503 23.786 73.1405 23.2998 72.9209 22.8919C72.7013 22.4841 72.3954 22.1704 72.0033 21.9508C71.6268 21.7155 71.1797 21.5978 70.6621 21.5978C70.1601 21.5978 69.7131 21.7155 69.3209 21.9508C68.9288 22.1704 68.6229 22.4841 68.4033 22.8919C68.1837 23.2998 68.0739 23.786 68.0739 24.3507V31.8566H64.9915Z" fill="black"/>
<path d="M85.1978 32.1389C83.9429 32.1389 82.7979 31.8487 81.7626 31.2683C80.743 30.6879 79.9273 29.8958 79.3155 28.8919C78.7194 27.888 78.4214 26.7429 78.4214 25.4566C78.4214 24.1703 78.7194 23.0253 79.3155 22.0213C79.9273 21.0174 80.743 20.2253 81.7626 19.6449C82.7822 19.0645 83.9273 18.7743 85.1978 18.7743C86.4527 18.7743 87.59 19.0645 88.6096 19.6449C89.6292 20.2253 90.437 21.0174 91.0331 22.0213C91.6449 23.0096 91.9507 24.1547 91.9507 25.4566C91.9507 26.7429 91.6449 27.888 91.0331 28.8919C90.4213 29.8958 89.6057 30.6879 88.5861 31.2683C87.5665 31.8487 86.437 32.1389 85.1978 32.1389ZM85.1978 29.3154C85.888 29.3154 86.4919 29.1507 87.0096 28.8213C87.5429 28.4919 87.9586 28.037 88.2566 27.4566C88.5704 26.8605 88.7272 26.1939 88.7272 25.4566C88.7272 24.7037 88.5704 24.0449 88.2566 23.4802C87.9586 22.8998 87.5429 22.4449 87.0096 22.1155C86.4919 21.7704 85.888 21.5978 85.1978 21.5978C84.492 21.5978 83.8724 21.7704 83.339 22.1155C82.8057 22.4449 82.3822 22.8998 82.0684 23.4802C81.7704 24.0449 81.6214 24.7037 81.6214 25.4566C81.6214 26.1939 81.7704 26.8605 82.0684 27.4566C82.3822 28.037 82.8057 28.4919 83.339 28.8213C83.8724 29.1507 84.492 29.3154 85.1978 29.3154Z" fill="black"/>
<path d="M94.2882 36.5624V19.0567H97.1823V21.5978L96.9 20.9625C97.3392 20.2723 97.9353 19.739 98.6882 19.3625C99.4411 18.9704 100.312 18.7743 101.3 18.7743C102.508 18.7743 103.598 19.0723 104.571 19.6684C105.543 20.2645 106.312 21.0645 106.876 22.0684C107.457 23.0723 107.747 24.2017 107.747 25.4566C107.747 26.6958 107.465 27.8252 106.9 28.8448C106.335 29.8644 105.567 30.6723 104.594 31.2683C103.621 31.8487 102.516 32.1389 101.276 32.1389C100.351 32.1389 99.496 31.9585 98.7117 31.5977C97.9431 31.2213 97.3313 30.6879 96.8764 29.9978L97.3706 29.386V36.5624H94.2882ZM100.923 29.3154C101.629 29.3154 102.257 29.1507 102.806 28.8213C103.355 28.4919 103.778 28.037 104.076 27.4566C104.39 26.8762 104.547 26.2095 104.547 25.4566C104.547 24.7037 104.39 24.0449 104.076 23.4802C103.778 22.8998 103.355 22.4449 102.806 22.1155C102.257 21.7704 101.629 21.5978 100.923 21.5978C100.249 21.5978 99.6372 21.7625 99.0882 22.0919C98.5549 22.4213 98.1313 22.8841 97.8176 23.4802C97.5196 24.0605 97.3706 24.7194 97.3706 25.4566C97.3706 26.2095 97.5196 26.8762 97.8176 27.4566C98.1313 28.037 98.5549 28.4919 99.0882 28.8213C99.6372 29.1507 100.249 29.3154 100.923 29.3154Z" fill="black"/>
<path d="M110.356 31.8566V14.3273H117.744C118.905 14.3273 119.893 14.5312 120.709 14.939C121.54 15.3312 122.175 15.8959 122.615 16.6331C123.069 17.3547 123.297 18.2331 123.297 19.2684C123.297 20.0684 123.077 20.8213 122.638 21.5272C122.215 22.2174 121.532 22.79 120.591 23.2449V21.7625C121.454 22.0919 122.136 22.4998 122.638 22.986C123.14 23.4723 123.493 24.0135 123.697 24.6096C123.901 25.2056 124.003 25.8331 124.003 26.4919C124.003 28.1703 123.446 29.488 122.332 30.4448C121.234 31.386 119.705 31.8566 117.744 31.8566H110.356ZM113.556 29.0331H118.073C118.905 29.0331 119.564 28.8056 120.05 28.3507C120.552 27.8801 120.803 27.2605 120.803 26.4919C120.803 25.7233 120.552 25.1037 120.05 24.6331C119.564 24.1625 118.905 23.9272 118.073 23.9272H113.556V29.0331ZM113.556 21.1272H117.909C118.567 21.1272 119.093 20.939 119.485 20.5625C119.877 20.1704 120.073 19.6684 120.073 19.0567C120.073 18.4449 119.877 17.9586 119.485 17.5978C119.093 17.2371 118.567 17.0567 117.909 17.0567H113.556V21.1272Z" fill="black"/>
<path d="M130.93 32.1389C129.942 32.1389 129.079 31.9193 128.342 31.4801C127.62 31.0409 127.063 30.4291 126.671 29.6448C126.295 28.8605 126.106 27.9429 126.106 26.8919V19.0567H129.189V26.6331C129.189 27.1664 129.291 27.637 129.495 28.0448C129.714 28.437 130.02 28.7507 130.412 28.986C130.82 29.2056 131.275 29.3154 131.777 29.3154C132.279 29.3154 132.726 29.2056 133.118 28.986C133.51 28.7507 133.816 28.4291 134.036 28.0213C134.255 27.6135 134.365 27.1272 134.365 26.5625V19.0567H137.447V31.8566H134.53V29.3389L134.789 29.786C134.491 30.5703 133.997 31.1585 133.306 31.5507C132.632 31.9428 131.84 32.1389 130.93 32.1389Z" fill="black"/>
<path d="M140.313 31.8566V19.0567H143.395V31.8566H140.313ZM140.313 17.6214V14.3273H143.395V17.6214H140.313Z" fill="black"/>
<path d="M146.241 31.8566V14.0449H149.323V31.8566H146.241Z" fill="black"/>
<path d="M158.122 32.1389C156.883 32.1389 155.777 31.8487 154.805 31.2683C153.832 30.6723 153.063 29.8644 152.499 28.8448C151.934 27.8252 151.652 26.6958 151.652 25.4566C151.652 24.2017 151.934 23.0723 152.499 22.0684C153.063 21.0645 153.832 20.2645 154.805 19.6684C155.793 19.0723 156.891 18.7743 158.099 18.7743C159.071 18.7743 159.934 18.9704 160.687 19.3625C161.455 19.739 162.059 20.2723 162.499 20.9625L162.028 21.5978V14.0449H165.11V31.8566H162.193V29.386L162.522 29.9978C162.083 30.6879 161.471 31.2213 160.687 31.5977C159.903 31.9585 159.048 32.1389 158.122 32.1389ZM158.452 29.3154C159.157 29.3154 159.777 29.1507 160.31 28.8213C160.844 28.4919 161.259 28.037 161.557 27.4566C161.871 26.8762 162.028 26.2095 162.028 25.4566C162.028 24.7194 161.871 24.0605 161.557 23.4802C161.259 22.8841 160.844 22.4213 160.31 22.0919C159.777 21.7625 159.157 21.5978 158.452 21.5978C157.761 21.5978 157.142 21.7704 156.593 22.1155C156.044 22.4449 155.612 22.8998 155.299 23.4802C155.001 24.0449 154.852 24.7037 154.852 25.4566C154.852 26.2095 155.001 26.8762 155.299 27.4566C155.612 28.037 156.044 28.4919 156.593 28.8213C157.142 29.1507 157.761 29.3154 158.452 29.3154Z" fill="black"/>
<path d="M174.049 32.1389C172.731 32.1389 171.578 31.8409 170.59 31.2448C169.602 30.6487 168.833 29.8409 168.284 28.8213C167.735 27.8017 167.46 26.6723 167.46 25.4331C167.46 24.1468 167.735 23.0096 168.284 22.0213C168.849 21.0174 169.609 20.2253 170.566 19.6449C171.539 19.0645 172.621 18.7743 173.813 18.7743C174.817 18.7743 175.696 18.939 176.449 19.2684C177.217 19.5978 177.868 20.0527 178.401 20.6331C178.935 21.2135 179.343 21.8802 179.625 22.6331C179.907 23.3703 180.048 24.1703 180.048 25.0331C180.048 25.2527 180.033 25.4801 180.001 25.7154C179.986 25.9507 179.947 26.1546 179.884 26.3272H170.002V23.9743H178.143L176.684 25.0801C176.825 24.3586 176.786 23.7154 176.566 23.1507C176.362 22.586 176.017 22.139 175.531 21.8096C175.06 21.4802 174.488 21.3155 173.813 21.3155C173.17 21.3155 172.598 21.4802 172.096 21.8096C171.594 22.1233 171.209 22.5939 170.943 23.2213C170.692 23.8331 170.598 24.5782 170.66 25.4566C170.598 26.2409 170.7 26.939 170.966 27.5507C171.249 28.1468 171.656 28.6095 172.19 28.9389C172.739 29.2683 173.366 29.4331 174.072 29.4331C174.778 29.4331 175.374 29.284 175.86 28.986C176.362 28.688 176.754 28.288 177.037 27.786L179.531 29.0095C179.28 29.6213 178.888 30.1625 178.354 30.633C177.821 31.1036 177.186 31.4723 176.449 31.7389C175.727 32.0056 174.927 32.1389 174.049 32.1389Z" fill="black"/>
<path d="M182.385 31.8566V19.0567H185.279V21.9037L185.044 21.4802C185.342 20.5233 185.805 19.8566 186.432 19.4802C187.075 19.1037 187.844 18.9155 188.738 18.9155H189.491V21.6449H188.385C187.507 21.6449 186.801 21.9194 186.267 22.4684C185.734 23.0017 185.467 23.7547 185.467 24.7272V31.8566H182.385Z" fill="black"/>
<path d="M37.3224 50.4841H4.28691C3.23445 50.4868 2.22349 50.0742 1.47377 49.3359C0.724052 48.5977 0.296193 47.5935 0.283203 46.5417L6.09153 15.6036C6.09153 14.9388 6.35511 14.301 6.82456 13.8299C7.29402 13.3589 7.9311 13.0929 8.59631 13.0903H33.7329C34.0631 13.0903 34.3901 13.1553 34.6952 13.2816C35.0003 13.4079 35.2775 13.5931 35.511 13.8265C35.7445 14.0598 35.9297 14.3369 36.0561 14.6418C36.1825 14.9468 36.2475 15.2736 36.2475 15.6036L41.3261 46.4924C41.3261 47.0175 41.2225 47.5373 41.0211 48.0223C40.8198 48.5072 40.5247 48.9477 40.1528 49.3185C39.7809 49.6893 39.3395 49.9831 38.8538 50.1831C38.3681 50.3831 37.8477 50.4854 37.3224 50.4841Z" fill="url(#paint0_linear_52_4745)"/>
<path d="M12.3642 19.7235C13.2792 19.7235 14.0209 18.9822 14.0209 18.0677C14.0209 17.1532 13.2792 16.4119 12.3642 16.4119C11.4493 16.4119 10.7075 17.1532 10.7075 18.0677C10.7075 18.9822 11.4493 19.7235 12.3642 19.7235Z" fill="white"/>
<path d="M29.2451 19.7235C30.1601 19.7235 30.9018 18.9822 30.9018 18.0677C30.9018 17.1532 30.1601 16.4119 29.2451 16.4119C28.3301 16.4119 27.5884 17.1532 27.5884 18.0677C27.5884 18.9822 28.3301 19.7235 29.2451 19.7235Z" fill="white"/>
<path fill-rule="evenodd" clip-rule="evenodd" d="M20.8048 1.52911C18.7046 1.52911 16.6905 2.36295 15.2054 3.84719C13.7204 5.33143 12.8861 7.34448 12.8861 9.44351V17.8113C12.8861 18.0998 12.6521 18.3337 12.3635 18.3337C12.0748 18.3337 11.8408 18.0998 11.8408 17.8113V9.44351C11.8408 7.0674 12.7852 4.78861 14.4663 3.10845C16.1474 1.42828 18.4274 0.484375 20.8048 0.484375C23.1822 0.484375 25.4622 1.42828 27.1432 3.10845C28.8243 4.78861 29.7687 7.0674 29.7687 9.44351V17.8113C29.7687 18.0998 29.5347 18.3337 29.2461 18.3337C28.9574 18.3337 28.7234 18.0998 28.7234 17.8113V9.44351C28.7234 7.34448 27.8891 5.33143 26.4041 3.84719C24.9191 2.36295 22.9049 1.52911 20.8048 1.52911Z" fill="#0A539B"/>
<g filter="url(#filter0_d_52_4745)">
<path d="M24.6613 41.5446C24.54 41.2303 24.3282 40.959 24.0528 40.7649C23.7774 40.5707 23.4506 40.4625 23.1137 40.4538C22.7768 40.445 22.4448 40.5363 22.1597 40.7159C21.8746 40.8956 21.6491 41.1556 21.5118 41.4632C21.3744 41.7708 21.3312 42.1122 21.3877 42.4442C21.4443 42.7763 21.5979 43.0842 21.8294 43.3291C22.0608 43.574 22.3596 43.7449 22.6881 43.8202C23.0166 43.8955 23.36 43.8719 23.6751 43.7523C24.0914 43.581 24.4259 43.2563 24.6095 42.8454C24.793 42.4345 24.8115 41.9688 24.6613 41.5446ZM31.5642 39.0412C31.4497 38.7182 31.242 38.4363 30.9673 38.2312C30.6927 38.026 30.3634 37.9068 30.021 37.8884C29.6787 37.8701 29.3385 37.9536 29.0436 38.1283C28.7486 38.303 28.512 38.561 28.3636 38.87C28.2153 39.1789 28.1618 39.5249 28.2099 39.8641C28.258 40.2034 28.4056 40.5209 28.6341 40.7764C28.8625 41.0319 29.1616 41.2141 29.4935 41.3C29.8254 41.3858 30.1754 41.3715 30.4992 41.2588C30.9338 41.1047 31.2898 40.785 31.4893 40.3695C31.6889 39.954 31.7158 39.4764 31.5642 39.0412ZM32.1657 33.3345C31.791 30.7719 31.3867 28.2192 30.9922 25.6567C30.9708 25.4857 30.9136 25.3212 30.8246 25.1737C30.6905 24.9801 30.4915 24.8408 30.2636 24.7812C30.0357 24.7215 29.7939 24.7454 29.5821 24.8485C24.9801 26.5043 20.3979 28.17 15.8354 29.8455L15.6381 29.9145C15.615 29.9294 15.5887 29.9387 15.5613 29.9417C15.5339 29.9447 15.5062 29.9413 15.4804 29.9317C15.4545 29.9221 15.4313 29.9067 15.4125 29.8866C15.3936 29.8665 15.3797 29.8423 15.3719 29.8159L14.7999 28.7613C14.6845 28.4891 14.5155 28.2428 14.303 28.0371C14.0904 27.8314 13.8388 27.6705 13.5628 27.5638C13.2869 27.4572 12.9924 27.4071 12.6967 27.4164C12.401 27.4257 12.1102 27.4942 11.8415 27.618C11.3485 27.7856 10.8554 27.9827 10.3722 28.1404C10.1307 28.1952 9.91584 28.3325 9.76465 28.5286C9.61346 28.7247 9.53538 28.9673 9.54383 29.2147L9.71148 29.6878C9.86037 29.8861 10.0733 30.0268 10.3141 30.086C10.555 30.1453 10.8089 30.1195 11.0329 30.013L12.5417 29.4611C12.8671 29.3428 12.9164 29.3724 13.0742 29.6779C13.7842 30.9986 14.4942 32.3095 15.1944 33.6203L15.7565 34.6059L16.22 34.4384C16.3969 34.3747 16.5842 34.3446 16.7722 34.3497C17.1463 34.3521 17.5078 34.4856 17.7935 34.727C18.0792 34.9685 18.2711 35.3025 18.3356 35.6709C18.4002 36.0392 18.3333 36.4185 18.1467 36.7426C17.9601 37.0668 17.6656 37.3152 17.3146 37.4445C17.4526 37.7204 17.6005 37.9866 17.7485 38.2625C18.0473 38.8937 18.5767 39.3864 19.2278 39.6394C19.879 39.8924 20.6024 39.8864 21.2492 39.6227L30.2822 36.3406C30.5115 36.2556 30.7326 36.15 30.9429 36.0252C31.3967 35.7546 31.757 35.352 31.9756 34.8711C32.1941 34.3902 32.2605 33.8541 32.1657 33.3345Z" fill="white"/>
</g>
<path opacity="0.5" fill-rule="evenodd" clip-rule="evenodd" d="M13.4572 33.0905C13.5866 33.446 13.4031 33.8391 13.0474 33.9683L6.75583 36.2549C6.4001 36.3842 6.00686 36.2008 5.87751 35.8453C5.74815 35.4897 5.93166 35.0967 6.28739 34.9674L12.5789 32.6808C12.9346 32.5515 13.3279 32.735 13.4572 33.0905Z" fill="white"/>
<path opacity="0.5" fill-rule="evenodd" clip-rule="evenodd" d="M15.5227 39.9797C15.6522 40.3352 15.4689 40.7282 15.1132 40.8577L10.6164 42.4938C10.2607 42.6232 9.86742 42.4399 9.73794 42.0844C9.60846 41.7289 9.79184 41.3358 10.1475 41.2064L14.6443 39.5703C15 39.4409 15.3933 39.6242 15.5227 39.9797Z" fill="white"/>
<path d="M12.214 38.3314C12.0738 38.3299 11.9373 38.2857 11.8228 38.2047C11.7082 38.1237 11.6211 38.0097 11.573 37.878C11.5402 37.794 11.5246 37.7043 11.5273 37.6142C11.5299 37.524 11.5507 37.4354 11.5885 37.3535C11.6262 37.2716 11.6801 37.1981 11.747 37.1375C11.8138 37.0769 11.8921 37.0304 11.9774 37.0008L16.5234 35.345C16.6947 35.2758 16.8866 35.2773 17.0567 35.3494C17.2269 35.4215 17.3614 35.5582 17.4307 35.7294C17.5 35.9006 17.4984 36.0923 17.4263 36.2624C17.3542 36.4324 17.2174 36.5669 17.0461 36.6362L12.5 38.2821C12.4093 38.3189 12.3118 38.3357 12.214 38.3314Z" fill="white"/>
<defs>
<filter id="filter0_d_52_4745" x="9.54321" y="24.749" width="23.1155" height="19.5652" filterUnits="userSpaceOnUse" color-interpolation-filters="sRGB">
<feFlood flood-opacity="0" result="BackgroundImageFix"/>
<feColorMatrix in="SourceAlpha" type="matrix" values="0 0 0 0 0 0 0 0 0 0 0 0 0 0 0 0 0 0 127 0" result="hardAlpha"/>
<feOffset dx="0.450977" dy="0.450977"/>
<feColorMatrix type="matrix" values="0 0 0 0 0 0 0 0 0 0 0 0 0 0 0 0 0 0 0.25 0"/>
<feBlend mode="normal" in2="BackgroundImageFix" result="effect1_dropShadow_52_4745"/>
<feBlend mode="normal" in="SourceGraphic" in2="effect1_dropShadow_52_4745" result="shape"/>
</filter>
<linearGradient id="paint0_linear_52_4745" x1="7.91461" y1="17.2304" x2="40.0735" y2="25.9412" gradientUnits="userSpaceOnUse">
<stop stop-color="#325EFD"/>
<stop offset="1" stop-color="#0047FF"/>
</linearGradient>
</defs>
</svg>
